<?xml version="1.0" encoding="UTF-8" standalone="no"?>
<!-- Created with Inkscape (http://www.inkscape.org/) -->

<svg
   width="85.268478mm"
   height="102.84932mm"
   viewBox="0 0 85.268478 102.84932"
   version="1.1"
   id="svg5"
   xml:space="preserve"
   xmlns="http://www.w3.org/2000/svg"
   xmlns:svg="http://www.w3.org/2000/svg"><defs
     id="defs2" /><g
     id="layer1"
     style="display:inline"
     transform="translate(-57.762987,-74.852979)"><path
       id="path398"
       style="display:inline;opacity:0.75;fill:#ffffff;stroke:#000000;stroke-width:0.264583"
       d="m 98.448771,74.985604 -7.517887,0.0186 C 69.583315,116.93233 62.46258,146.44381 57.916361,177.07756 h 9.119857 c 6.946354,-20.27582 11.692227,-37.2903 31.412553,-61.05208 z m 3.896399,0 v 41.039876 c 19.72044,23.76178 24.46668,40.77626 31.41307,61.05208 h 9.11986 C 138.33186,146.44381 131.21127,116.93233 109.86358,75.004207 Z m -1.63711,63.398716 c -5.91908,-0.0884 -11.881617,2.52298 -15.550467,7.2471 -4.379977,5.327 -5.771415,13.02908 -3.072681,19.43912 2.958166,7.5931 10.93883,13.00583 19.142498,12.46178 1.36445,-0.0714 2.72085,-0.28936 4.04162,-0.63821 7.53872,-1.87265 13.48471,-8.64449 14.45183,-16.33854 1.3506,-8.9917 -4.52885,-18.41074 -13.19455,-21.16149 -1.87681,-0.65117 -3.84522,-0.98029 -5.81825,-1.00976 z m -0.977197,1.55132 c 0.724147,-0.0231 1.202217,0.0668 1.206647,0.33073 1.37579,1.30857 3.75802,0.5314 5.27254,1.68207 -0.40527,0.35584 -2.61241,0.41907 -0.92397,1.19683 1.28838,1.19923 2.70448,-1.03356 3.69435,0.98702 0.11293,0.85464 1.71078,2.70472 2.14767,1.63866 -0.32295,-0.78575 -2.55177,-3.10945 -0.34882,-2.44585 1.0828,0.61656 2.09404,2.23606 0.92501,3.11402 0.73424,1.75372 1.17457,3.73232 2.40141,5.28909 0.51488,1.43753 2.77869,4.49009 3.54138,1.60868 2.01538,6.62065 -0.68267,14.25439 -5.98826,18.60507 -0.78599,0.47427 -2.55612,2.22968 -3.05201,1.71617 0.39555,-0.65937 0.9107,-1.23755 1.38803,-1.83761 1.09522,-1.59961 2.82633,-2.80301 3.58324,-4.59145 -0.0387,-1.46419 0.60921,-3.28009 0.39894,-4.4819 -1.54821,0.32504 -3.12542,1.55869 -4.61987,0.27544 -1.71546,1.13254 -3.62774,0.0282 -5.47564,0.2775 -1.15197,0.0914 -1.44556,2.9681 -2.26032,0.79168 -1.13161,0.0872 -1.736774,2.80131 -3.288174,1.22887 -1.182273,-0.45262 -2.9564,-3.8844 -3.765145,-1.80919 -1.738335,1.49107 -3.238535,-2.57341 -1.16427,-3.27939 1.29507,-1.23294 2.80001,-0.0435 3.769796,0.42581 -0.01262,-1.25159 -0.92018,-2.37581 0.38654,-3.42201 1.043863,-1.32604 -0.161429,-3.97359 1.827795,-4.44056 2.332618,-0.94864 -2.767351,-2.28657 -0.109037,-2.30528 1.153625,0.71914 2.486705,-0.14922 1.427815,-1.36167 -1.545638,-0.94005 -3.607047,-0.98918 -5.14025,-1.61541 -1.224659,0.82514 0.43797,4.88525 -2.009697,2.72386 -1.238194,-0.34926 -1.955733,-1.00108 -0.571541,-1.87275 1.621488,-0.77971 1.678482,-2.88986 -0.480074,-2.29237 -1.287117,1.53378 -3.01388,0.0949 -3.364136,-1.24436 0.05258,-1.47436 2.349428,-2.98231 4.669999,-3.73879 1.54385,-0.50328 4.326931,-1.10199 5.920052,-1.15291 z m -13.042098,6.38514 c 1.387801,0.33437 -2.20107,2.71346 0.202055,3.02256 1.253879,1.25429 -0.69687,2.77492 0.268718,3.95376 -0.833549,1.26268 -1.110099,3.25307 -0.898137,4.82658 0.71789,1.56693 1.842516,3.68131 3.018938,4.54649 1.287761,0.37068 1.953557,2.58985 3.745507,2.46549 1.842814,0.0361 3.757049,0.30781 5.25601,1.47329 0.91832,0.36695 2.620484,-0.87156 2.293914,1.0604 -0.26711,2.75628 2.62017,3.88658 4.71703,4.3155 1.01456,1.91294 -0.919,3.92986 -2.8944,3.76411 -2.36715,0.24626 -4.812319,0.13783 -7.11171,-0.50333 -6.922127,-1.97301 -12.218037,-8.41985 -12.871565,-15.57786 -0.489948,-4.76263 0.965247,-9.83999 4.27364,-13.34699 z" /></g></svg>
