<?xml version="1.0" encoding="UTF-8" standalone="no"?>
<!-- Created with Inkscape (http://www.inkscape.org/) -->

<svg
   width="100.03664mm"
   height="100.99601mm"
   viewBox="0 0 100.03663 100.99601"
   version="1.1"
   id="svg5"
   xml:space="preserve"
   xmlns="http://www.w3.org/2000/svg"
   xmlns:svg="http://www.w3.org/2000/svg"><defs
     id="defs2" /><g
     id="layer1"
     transform="translate(-54.046538,-81.276866)"><path
       id="path233"
       style="opacity:0.75;fill:#ffffff;stroke:#000000;stroke-width:0.264583"
       d="m 102.32853,81.409223 c -0.78053,-0.0077 -2.893116,0.59895 -3.225645,7.287927 0,0 -0.211679,1.997035 -0.380339,17.06821 -0.16866,15.07117 -8.725894,34.90833 -15.864665,42.9395 -7.138774,8.03116 -15.982101,15.09856 -21.093286,17.93895 -5.111188,2.8404 -8.679191,3.64461 -7.279659,9.29401 0,0 29.379094,-16.58271 48.132464,-24.31996 V 81.445396 c 0,0 -0.10875,-0.0344 -0.28887,-0.03617 z m 3.47265,0 c -0.18012,0.0018 -0.28938,0.03617 -0.28938,0.03617 v 70.172467 c 18.75346,7.73725 48.13298,24.31996 48.13298,24.31996 1.39953,-5.6494 -2.16845,-6.45361 -7.27966,-9.29401 -5.11122,-2.84039 -13.95448,-9.90779 -21.09329,-17.93895 -7.13881,-8.03117 -15.69601,-27.86833 -15.86466,-42.9395 -0.16866,-15.071178 -0.38034,-17.068213 -0.38034,-17.068213 -0.33253,-6.688977 -2.44512,-7.295627 -3.22565,-7.287927 z m -3.35896,74.166537 c -6.837691,0.1632 -22.006663,7.89715 -23.64559,9.31467 -0.847276,0.56253 -1.73014,1.66026 0.627352,1.71256 11.033999,0.11566 16.950993,4.78873 19.166789,13.6927 0.695826,2.57073 4.060749,2.53908 4.030249,-0.62683 z m 3.24528,0 -0.1788,24.0931 c -0.0305,3.16591 3.33441,3.19756 4.03024,0.62683 2.21581,-8.90397 8.13273,-13.57704 19.16679,-13.6927 2.35751,-0.0523 1.47463,-1.15003 0.62735,-1.71256 -1.63894,-1.41752 -16.80787,-9.15147 -23.64558,-9.31467 z" /></g></svg>
