<?xml version="1.0" encoding="UTF-8" standalone="no"?>
<!-- Created with Inkscape (http://www.inkscape.org/) -->

<svg
   width="114.21871mm"
   height="115.18041mm"
   viewBox="0 0 114.21872 115.18042"
   version="1.1"
   id="svg5"
   xml:space="preserve"
   xmlns="http://www.w3.org/2000/svg"
   xmlns:svg="http://www.w3.org/2000/svg"><defs
     id="defs2" /><g
     id="layer1"
     style="display:inline"
     transform="translate(-46.169134,-76.979658)"><path
       style="display:inline;opacity:0.75;fill:#ffffff;stroke:#000000;stroke-width:0.264583"
       d="m 105.87028,189.78254 c 5.65879,-5.97812 5.23272,-10.62288 -0.67864,-7.39812 -1.65364,0.90209 -1.65364,0.90209 -3.30729,0 -4.251935,-2.31951 -5.847851,-0.93153 -3.750147,3.26153 0.864166,1.72736 4.805317,6.38182 5.403797,6.38182 0.11384,0 1.16336,-1.01035 2.33228,-2.24523 z m -9.542179,-2.05288 c 1.312087,-1.04973 -0.72717,-5.16804 -4.334169,-8.75293 -6.482746,-6.44301 -11.810589,-5.81202 -7.481421,0.88605 3.444105,5.3287 9.744712,9.52368 11.81559,7.86688 z m 17.759959,-0.10296 c 2.45852,-0.99659 6.48612,-4.68608 8.47542,-7.76392 4.32917,-6.69807 -0.99867,-7.32906 -7.48142,-0.88605 -5.73128,5.69615 -6.31875,10.80843 -0.994,8.64997 z m -7.56626,-7.33122 c 4.90024,-2.04745 11.12258,-9.75095 10.07699,-12.47571 -1.0094,-2.63044 -9.09073,2.45345 -12.12192,7.62579 -0.89607,1.52902 -0.98168,1.52902 -1.87774,0 -4.573433,-7.80397 -15.101109,-11.59694 -11.344094,-4.08711 3.248483,6.49333 10.689794,10.84941 15.266764,8.93703 z m -17.157911,-6.67515 c 0.976482,-0.97648 0.0908,-3.86713 -1.989751,-6.49404 -0.814252,-1.02808 -0.814252,-1.02808 0.107228,-2.28465 6.444737,-8.78835 -1.89353,-8.68684 -8.754253,0.10657 -1.949035,2.49808 8.385283,10.92362 10.636776,8.67212 z m 30.606401,0.14778 c 4.13503,-1.14862 9.75121,-7.06061 8.37859,-8.8199 -6.83473,-8.7601 -15.19326,-8.87699 -8.76695,-0.12261 0.93418,1.27261 0.93418,1.27261 0.11993,2.30069 -3.33176,4.20669 -3.19447,7.60374 0.26843,6.64182 z m -25.984741,-9.2672 c 2.894595,-1.31331 6.747701,-4.82079 8.530021,-7.76486 1.0905,-1.80132 0.91348,-1.83239 2.34534,0.41167 3.44758,5.40314 11.06608,9.88113 11.80463,6.93851 0.40728,-1.62272 -1.49037,-5.08147 -4.41771,-8.05193 -6.17662,-6.26762 -11.02579,-6.30332 -17.293692,-0.1273 -5.547841,5.46651 -6.166098,10.95207 -0.968589,8.59391 z m -18.526905,-7.65823 c 6.754643,-6.93523 4.950489,-11.79846 -2.391969,-6.44773 -1.234863,0.8999 -1.234863,0.8999 -2.910416,-0.26838 -6.959995,-4.85283 -8.560644,-0.3246 -2.256759,6.38435 3.753176,3.99434 3.982149,4.00439 7.559144,0.33176 z m 62.637306,0.72653 c 7.2869,-6.92184 6.37277,-12.70614 -1.17621,-7.44264 -1.67556,1.16828 -1.67556,1.16828 -2.91042,0.26838 -8.4264,-6.14064 -8.87572,1.20301 -0.50214,8.20694 1.92613,1.61109 1.76814,1.64665 4.58877,-1.03268 z m -51.306739,-0.5827 c 6.787665,-3.16027 13.312879,-13.91265 7.911086,-13.03606 -0.912169,0.14803 -0.912169,0.14803 -0.764146,-0.76414 0.343173,-2.11473 -1.405752,-2.50213 -4.451667,-0.98608 -6.387894,3.17947 -12.289338,13.37239 -7.359433,12.71115 0.981877,-0.1317 0.981877,-0.1317 0.850178,0.85017 -0.254958,1.90087 1.293846,2.3983 3.813982,1.22496 z m 36.998999,0.20117 c 0.31693,-0.31693 0.40651,-0.72565 0.31256,-1.42613 -0.1317,-0.98187 -0.1317,-0.98187 0.85017,-0.85017 4.92991,0.66124 -0.97154,-9.53168 -7.35943,-12.71115 -3.04591,-1.51605 -4.79484,-1.12865 -4.45167,0.98608 0.14803,0.91217 0.14803,0.91217 -0.76414,0.76414 -3.19669,-0.51875 -2.21378,3.96305 1.81532,8.27736 3.92976,4.20795 8.16191,6.39515 9.59719,4.95987 z m -61.129709,-2.36995 c 1.935488,-0.74271 0.143725,-5.0087 -3.748624,-8.92506 -3.951515,-3.97589 -7.84872,-5.72134 -8.966262,-4.01576 -2.086164,3.18389 8.928156,14.39392 12.714886,12.94082 z m 84.508299,-0.37099 c 5.30072,-2.40499 11.50133,-10.22597 9.96558,-12.56983 -1.11754,-1.70558 -5.01475,0.0399 -8.96626,4.01576 -5.49357,5.52745 -6.11849,10.87669 -0.99932,8.55407 z m -45.15082,-4.76745 c 0.69596,-0.42823 1.38087,-0.7786 1.52202,-0.7786 0.14115,0 0.82605,0.35037 1.52201,0.7786 6.147,3.78228 6.38536,-1.76972 0.33728,-7.8562 -2.04474,-2.05773 -3.23151,-1.47225 -6.379744,3.14734 -3.359706,4.92989 -1.670955,7.58196 2.998434,4.70886 z M 70.066835,147.4094 c 2.678377,-1.02779 -2.816365,-9.58087 -7.8804,-12.26659 -1.5284,-0.81059 -1.528597,-0.78075 0.01042,-1.58041 4.606721,-2.3936 10.144101,-10.6104 8.138676,-12.0768 -3.15812,-2.30927 -13.034285,7.08751 -13.241162,12.59842 -0.20009,5.33015 9.049067,14.83092 12.972462,13.32538 z m 5.915475,-0.21473 c 4.976426,-1.75579 10.583531,-8.56157 10.583531,-12.84606 0,-4.31788 -5.757727,-11.2192 -10.782429,-12.92402 -6.063713,-2.05735 -1.684594,7.63355 5.382315,11.91095 1.771571,1.07228 1.771571,0.95386 0,2.02614 -7.217613,4.36861 -11.456958,14.04642 -5.183417,11.83299 z m 57.83158,-0.0327 c 1.7986,-1.7986 -2.85272,-8.74316 -7.90362,-11.80032 -1.77157,-1.07228 -1.77157,-0.95386 0,-2.02614 7.06691,-4.2774 11.44603,-13.9683 5.38231,-11.91095 -5.0247,1.70482 -10.78243,8.60614 -10.78243,12.92402 0,5.60815 10.44702,15.67011 13.30374,12.81339 z m 6.72489,-0.5259 c 6.51481,-3.25923 10.88292,-10.73111 8.94268,-15.29693 -2.7496,-6.47042 -13.34957,-13.29117 -13.21383,-8.5027 0.0723,2.54998 5.2229,8.96524 8.61151,10.72593 1.53902,0.79966 1.53882,0.76982 0.0104,1.58041 -7.70149,4.08449 -11.94412,15.29208 -4.35078,11.49329 z m -84.238484,-6.45608 c 0.630789,-0.69701 0.377542,-2.02266 -0.798109,-4.17777 -0.902094,-1.65364 -0.902094,-1.65364 0,-3.30729 3.260543,-5.97696 -1.506363,-6.33991 -7.476101,-0.56923 -2.299547,2.22288 -2.299547,2.22288 0,4.44575 3.528891,3.41123 7.059362,4.95093 8.27421,3.60854 z m 34.159839,0.0967 c 2.049097,-0.85617 7.257029,-5.12341 7.257029,-5.94621 0,-0.37988 -3.318836,-3.49229 -4.800987,-4.50237 -5.0054,-3.41117 -7.643198,-1.63292 -4.637204,3.12613 0.388816,0.61557 0.706941,1.24301 0.706941,1.39432 0,0.1513 -0.318125,0.77875 -0.706941,1.39432 -2.324343,3.67987 -1.228201,5.95833 2.181162,4.53381 z m 29.411705,-0.4033 c 0.40751,-0.85434 -0.004,-2.43481 -1.07482,-4.13051 -0.38882,-0.61557 -0.70694,-1.24302 -0.70694,-1.39432 0,-0.15131 0.31812,-0.77875 0.70694,-1.39432 3.94916,-6.25227 -1.62541,-6.58524 -7.78454,-0.46498 -2.04106,2.02818 -1.44042,3.24846 3.13582,6.37078 2.9364,2.00348 5.07098,2.3814 5.72354,1.01335 z m 34.97533,-0.12696 c 5.30811,-2.65553 6.70983,-5.19725 4.20274,-7.62075 -5.96974,-5.77068 -10.73664,-5.40773 -7.4761,0.56923 0.90209,1.65365 0.90209,1.65365 0,3.30729 -2.32238,4.25721 -0.9317,5.84794 3.27336,3.74423 z m -49.442,-12.87235 c 6.03727,-6.04662 5.77874,-11.63952 -0.3634,-7.86147 -0.70089,0.43113 -1.37759,0.78386 -1.50377,0.78386 -0.12619,0 -0.80288,-0.35273 -1.50378,-0.78386 -4.675763,-2.87608 -6.377301,-0.21711 -3.016674,4.71413 1.033934,1.51715 4.125884,4.80098 4.520454,4.80098 0.11884,0 0.95907,-0.74414 1.86717,-1.65364 z m -52.242425,0.16974 c 4.933049,-2.06116 11.195453,-9.67955 10.171198,-12.37354 -1.024141,-2.6937 -7.744671,1.23243 -11.695822,6.83269 -3.068635,4.3494 -2.300969,7.13928 1.524624,5.54085 z m 40.447961,-0.0976 c 0.342577,-0.37854 0.432549,-0.77536 0.325445,-1.43535 -0.148023,-0.91217 -0.148023,-0.91217 0.764146,-0.76415 3.196683,0.51875 2.213774,-3.96304 -1.815319,-8.27735 -4.924878,-5.27352 -10.405221,-7.22777 -9.909749,-3.53375 0.131699,0.98188 0.131699,0.98188 -0.850178,0.85018 -3.496908,-0.46903 -2.071532,4.23394 2.749881,9.07312 3.845454,3.85963 7.425801,5.5348 8.735774,4.0873 z m 23.980804,-0.44928 c 6.38789,-3.17946 12.28934,-13.37238 7.35943,-12.71114 -0.98187,0.1317 -0.98187,0.1317 -0.85017,-0.85018 0.49547,-3.69402 -4.98488,-1.73977 -9.90975,3.53375 -4.0291,4.31431 -5.01201,8.7961 -1.81532,8.27735 0.91217,-0.14802 0.91217,-0.14802 0.76414,0.76415 -0.34317,2.11473 1.40576,2.50213 4.45167,0.98607 z m 39.54087,0.32332 c 1.53575,-2.34385 -4.66486,-10.16483 -9.96558,-12.56983 -4.43595,-2.01263 -4.68985,2.14097 -0.42877,7.01405 4.37221,5.00015 9.10196,7.52821 10.39435,5.55578 z m -77.737612,-6.56808 c 1.607653,-1.24395 -2.007566,-7.24348 -6.456376,-10.7145 -1.244409,-0.9709 -2.021985,-0.56219 -5.038892,2.64857 -6.289553,6.6937 -4.713083,11.25964 2.215346,6.41632 1.716966,-1.20024 1.716966,-1.20024 2.951829,-0.30097 2.966744,2.16049 5.17652,2.84163 6.328093,1.95058 z m 52.189062,-0.4478 c 0.65484,-0.33193 1.74631,-1.00818 2.42549,-1.50278 1.23486,-0.89927 1.23486,-0.89927 2.95183,0.30097 6.92843,4.84332 8.5049,0.27738 2.21534,-6.41632 -3.0169,-3.21076 -3.79448,-3.61947 -5.03889,-2.64857 -7.3288,5.71802 -9.31241,13.69254 -2.55377,10.2667 z m -25.66458,-2.71146 c 4.58706,-1.39037 11.51149,-9.43319 10.74629,-12.48198 -0.73855,-2.94262 -8.35705,1.53538 -11.80463,6.93852 -0.65484,1.02629 -1.25015,1.86598 -1.32291,1.86598 -0.0728,0 -0.66808,-0.83969 -1.32292,-1.86598 -4.300423,-6.73975 -13.315323,-10.73132 -11.64613,-5.15661 1.89049,6.31378 10.35513,12.21414 15.3503,10.70007 z m -16.457086,-6.87435 c 0.882038,-0.88204 0.03256,-3.62155 -1.968098,-6.347 -0.93418,-1.27261 -0.93418,-1.27261 -0.119928,-2.30069 5.612429,-7.086265 0.893633,-9.336777 -5.998456,-2.860809 -3.210761,3.016909 -3.619473,3.794479 -2.648569,5.038889 3.515511,4.50585 9.245542,7.95912 10.735051,6.46961 z m 31.160466,-0.10437 c 2.27098,-0.94887 5.7124,-3.78408 7.72625,-6.36524 0.97091,-1.24441 0.56219,-2.02198 -2.64857,-5.038889 -6.89209,-6.475968 -11.61088,-4.225456 -5.99845,2.860809 0.81425,1.02808 0.81425,1.02808 -0.11993,2.30069 -3.45388,4.70513 -2.92157,7.89817 1.0407,6.24263 z m -25.827212,-9.45565 c 2.105699,-1.032978 5.918392,-4.579458 7.485182,-6.962547 1.34299,-2.042677 1.17181,-2.042677 2.51479,0 2.46775,3.753453 7.77332,7.852597 10.25474,7.922937 2.92678,0.083 1.85112,-4.008903 -2.18042,-8.294452 -6.83024,-7.260594 -11.82875,-7.265305 -18.646896,-0.01757 -5.472644,5.817455 -5.135065,10.151612 0.572604,7.351642 z m -7.529296,-7.332995 c 5.609458,-2.689025 11.427225,-11.253737 8.569783,-12.616136 -3.320426,-1.583144 -13.80099,8.614799 -12.8299,12.483926 0.341421,1.360331 1.615689,1.399879 4.260117,0.13221 z m 36.578648,0.332187 c 2.35219,-2.992281 -9.00866,-14.662867 -12.60468,-12.948323 -1.73281,0.826186 -0.54728,4.249353 2.72427,7.866232 4.06312,4.492001 8.53581,6.792577 9.88041,5.082091 z m -21.96042,-7.33903 c 1.65365,-0.908048 1.65365,-0.908048 3.30729,-0.006 5.97697,3.260543 6.33992,-1.506364 0.56923,-7.476101 -2.22287,-2.299548 -2.22287,-2.299548 -4.44575,-1e-6 -5.758872,5.957517 -5.393773,10.756452 0.56923,7.482055 z"
       id="path1139" /></g></svg>
