<?xml version="1.0" encoding="UTF-8" standalone="no"?>
<!-- Created with Inkscape (http://www.inkscape.org/) -->

<svg
   width="113.43305mm"
   height="107.91191mm"
   viewBox="0 0 113.43305 107.91191"
   version="1.1"
   id="svg5"
   xml:space="preserve"
   inkscape:version="1.2.2 (732a01da63, 2022-12-09)"
   sodipodi:docname="citadel2.svg"
   inkscape:export-filename="citadel.svg"
   inkscape:export-xdpi="96"
   inkscape:export-ydpi="96"
   xmlns:inkscape="http://www.inkscape.org/namespaces/inkscape"
   xmlns:sodipodi="http://sodipodi.sourceforge.net/DTD/sodipodi-0.dtd"
   xmlns="http://www.w3.org/2000/svg"
   xmlns:svg="http://www.w3.org/2000/svg"><sodipodi:namedview
     id="namedview7"
     pagecolor="#ffffff"
     bordercolor="#000000"
     borderopacity="0.25"
     inkscape:showpageshadow="2"
     inkscape:pageopacity="0.0"
     inkscape:pagecheckerboard="0"
     inkscape:deskcolor="#d1d1d1"
     inkscape:document-units="mm"
     showgrid="false"
     inkscape:zoom="2.8284271"
     inkscape:cx="356.5586"
     inkscape:cy="352.13918"
     inkscape:window-width="1920"
     inkscape:window-height="1009"
     inkscape:window-x="-8"
     inkscape:window-y="433"
     inkscape:window-maximized="1"
     inkscape:current-layer="layer1" /><defs
     id="defs2" /><g
     inkscape:label="Warstwa 1"
     inkscape:groupmode="layer"
     id="layer1"
     transform="translate(-42.663964,-52.308436)"><path
       id="path2804"
       style="display:inline;opacity:0.75;fill:#ffffff;fill-opacity:1;stroke:#000000;stroke-width:0.264583;stroke-opacity:1"
       d="m 74.040442,52.440727 c -3.772127,2.562295 -9.844518,6.858307 -15.06523,10.719242 4.59506,9.471188 10.665688,19.828994 20.108333,33.225879 C 81.991274,88.267982 89.634689,82.409804 98.684932,82.130904 88.463329,67.795045 87.173976,65.550151 74.040959,52.440727 Z m 50.679598,0 c -13.13367,13.110385 -14.42312,15.354204 -24.64605,29.691727 9.04762,0.295942 16.68189,6.168247 19.574,14.295252 9.45969,-13.417317 15.5379,-23.786626 20.13779,-33.267737 -5.22073,-3.860935 -11.29307,-8.156947 -15.06523,-10.719242 z m -4.7377,45.008105 c 0.58928,1.963328 0.90951,4.042858 0.90951,6.198068 2e-5,6.86347 -3.21523,12.97217 -8.21707,16.91525 15.84133,5.08878 27.01832,7.64988 37.53982,9.21908 2.12325,-6.13639 4.40704,-13.21559 5.7242,-17.58136 -16.53973,-8.66648 -18.93454,-9.18577 -35.95646,-14.751038 z m -41.251228,0.0155 c -16.97528,5.549518 -19.385802,6.077758 -35.90892,14.735538 1.317157,4.36577 3.600955,11.44497 5.724199,17.58136 10.514719,-1.56819 21.683777,-4.12701 37.508821,-9.20926 -5.00895,-3.94274 -8.229494,-10.05592 -8.229471,-16.92507 -6e-6,-2.1496 0.319047,-4.223739 0.905371,-6.182568 z M 111.44901,121.467 c -3.44674,2.34303 -7.60834,3.71297 -12.090217,3.71296 -4.460833,1e-5 -8.604919,-1.35645 -12.042159,-3.67937 0.08478,16.60061 1.005842,27.99807 2.76779,38.50205 6.492171,0.12128 13.930256,0.10425 18.489306,0.006 2.79347,-16.42578 2.86053,-28.02605 2.87528,-38.54184 z" /><path
       d="m 99.358757,87.198817 c 9.084173,-2.2e-5 16.448323,7.364147 16.448323,16.448303 2e-5,9.08416 -7.36415,16.44834 -16.448323,16.44831 -9.084164,3e-5 -16.448338,-7.36415 -16.448308,-16.44831 -2.1e-5,-9.084159 7.364149,-16.448329 16.448308,-16.448303 z"
       style="display:inline;opacity:0.75;fill:#ffffff;fill-opacity:1;stroke:#000000;stroke-width:0.389308;stroke-opacity:1"
       id="path3346" /></g></svg>
