<?xml version="1.0" encoding="UTF-8" standalone="no"?>
<!-- Created with Inkscape (http://www.inkscape.org/) -->

<svg
   width="49.043827mm"
   height="60.865158mm"
   viewBox="0 0 49.043827 60.865158"
   version="1.1"
   id="svg5"
   xml:space="preserve"
   xmlns="http://www.w3.org/2000/svg"
   xmlns:svg="http://www.w3.org/2000/svg"><defs
     id="defs2" /><g
     id="layer1"
     transform="translate(-88.820782,-109.28404)"><path
       id="path2248"
       style="opacity:0.75;fill:#ffffff;stroke:#000000;stroke-width:0.264583"
       d="m 110.70332,111.41956 c -7.28666,0.83337 -16.26532,8.46053 -17.823718,14.06219 -0.438832,5.64641 0.145037,7.17722 -0.179317,9.49399 -0.981488,1.42351 -1.313329,3.00947 -1.16427,4.38836 0,0 -2.910027,5.84772 -2.552299,6.31435 0.04327,0.0564 0.14049,0.0662 0.276469,0.0413 0.506785,0.55981 7.035857,7.77874 8.202083,9.44232 1.212431,1.72944 2.906342,9.86273 3.483512,10.39316 0.51056,0.46921 4.70021,1.34431 5.70611,1.54978 0.17124,0.22232 0.34253,0.41211 0.51366,0.56224 2.68668,2.35698 2.90169,2.40942 6.1774,2.32957 3.27519,0.0798 3.49034,0.0273 6.17689,-2.32957 0.17113,-0.15013 0.34242,-0.33992 0.51366,-0.56224 1.0059,-0.20547 5.19555,-1.08057 5.70611,-1.54978 0.57717,-0.53043 2.27108,-8.66372 3.48351,-10.39316 1.16622,-1.66358 7.69529,-8.88251 8.20208,-9.44232 0.13598,0.0249 0.23317,0.0151 0.27647,-0.0413 0.35773,-0.46663 -2.5523,-6.31435 -2.5523,-6.31435 0.14906,-1.37889 -0.18278,-2.96485 -1.16427,-4.38836 -0.32435,-2.31677 0.25953,-3.84758 -0.17931,-9.49399 -1.5584,-5.60166 -10.53702,-13.22882 -17.82372,-14.06219 l -2.63937,-1.97043 z m -7.19594,25.27597 c 0.12183,4.2e-4 0.24267,0.005 0.36173,0.015 2.42592,0.20208 4.47458,0.996 5.41776,1.80299 0.57171,0.48916 0.84109,2.12632 0.76119,2.77657 -0.0799,0.65025 -2.95585,3.44821 -4.52323,3.40341 -1.5674,-0.0448 -2.92043,-0.55556 -4.37235,-1.93631 -1.451899,-1.38074 -2.485157,-4.16239 -2.001943,-4.62504 0.453006,-0.43374 2.529363,-1.44289 4.356843,-1.43661 z m 19.67063,0 c 1.82749,-0.006 3.90383,1.00287 4.35684,1.43661 0.48321,0.46265 -0.55005,3.2443 -2.00194,4.62504 -1.45193,1.38075 -2.80494,1.89151 -4.37235,1.93631 -1.56739,0.0448 -4.44334,-2.75316 -4.52323,-3.40341 -0.0799,-0.65025 0.18948,-2.28741 0.76119,-2.77657 0.94319,-0.80699 2.99182,-1.60091 5.41776,-1.80299 0.11906,-0.01 0.2399,-0.0146 0.36173,-0.015 z m -29.850373,6.78874 8.329723,9.76271 c 0,0 1.39229,5.97308 3.15898,10.3358 -0.28303,-0.11761 -0.61386,-0.29786 -0.8692,-0.56482 -0.55253,-0.5777 -2.12424,-7.8854 -3.26181,-9.75341 -0.920678,-1.51187 -6.161564,-7.14976 -8.149376,-9.2692 0.461394,-0.29231 0.791683,-0.51108 0.791683,-0.51108 z m 40.030113,0 c 0,0 0.33029,0.21877 0.79168,0.51108 -1.9878,2.11944 -7.2287,7.75733 -8.14937,9.2692 -1.13757,1.86801 -2.70928,9.17571 -3.26182,9.75341 -0.25534,0.26696 -0.58616,0.44721 -0.86919,0.56482 1.7667,-4.36272 3.15898,-10.3358 3.15898,-10.3358 z m -41.458967,0.90692 c 1.69943,1.86203 7.002162,7.6976 8.026384,9.15861 1.212433,1.72948 2.842773,9.57128 3.419943,10.10171 0.35394,0.32527 1.19985,0.5765 1.80299,0.72295 0.0906,0.20696 0.18188,0.40854 0.27389,0.6041 -0.93909,-0.25312 -2.36513,-0.68457 -2.72903,-1.06505 -0.55253,-0.5777 -2.12373,-7.88488 -3.261303,-9.75289 -0.933282,-1.53259 -6.307909,-7.30696 -8.229472,-9.35447 0.238648,-0.13799 0.471255,-0.27742 0.696598,-0.41496 z m 42.887817,0 c 0.22535,0.13754 0.45795,0.27697 0.6966,0.41496 -1.92155,2.04751 -7.29619,7.82188 -8.22947,9.35447 -1.13757,1.86801 -2.70876,9.17519 -3.2613,9.75289 -0.3639,0.38048 -1.78994,0.81193 -2.72903,1.06505 0.092,-0.19556 0.18328,-0.39714 0.27388,-0.6041 0.60314,-0.14645 1.44906,-0.39768 1.803,-0.72295 0.57716,-0.53043 2.20751,-8.37223 3.41994,-10.10171 1.02422,-1.46101 6.32696,-7.29658 8.02638,-9.15861 z m -44.244323,0.78341 c 1.536594,1.68235 7.079028,7.77269 8.12922,9.27075 1.212427,1.72948 2.842773,9.57128 3.419943,10.10171 0.40709,0.37412 2.50249,0.90961 3.71295,1.19579 0.10867,0.20539 0.21788,0.40333 0.32763,0.58705 -1.18916,-0.26137 -4.14385,-0.94723 -4.58473,-1.40818 -0.55253,-0.5777 -2.187296,-8.17682 -3.324862,-10.04487 -0.940811,-1.54495 -6.397612,-7.4038 -8.277014,-9.40563 0.186175,-0.0854 0.385673,-0.18412 0.596863,-0.29662 z m 45.600833,0 c 0.21119,0.1125 0.41069,0.21122 0.59686,0.29662 -1.87939,2.00183 -7.3362,7.86068 -8.27701,9.40563 -1.13757,1.86805 -2.77233,9.46717 -3.32486,10.04487 -0.44088,0.46095 -3.39557,1.14681 -4.58473,1.40818 0.10974,-0.18372 0.21895,-0.38166 0.32762,-0.58705 1.21048,-0.28618 3.30586,-0.82167 3.71296,-1.19579 0.57716,-0.53043 2.20751,-8.37223 3.41994,-10.10171 1.05019,-1.49806 6.59262,-7.5884 8.12922,-9.27075 z" /></g></svg>
