<?xml version="1.0" encoding="UTF-8" standalone="no"?>
<!-- Created with Inkscape (http://www.inkscape.org/) -->

<svg
   width="122.62995mm"
   height="96.721619mm"
   viewBox="0 0 122.62996 96.721618"
   version="1.1"
   id="svg781"
   xml:space="preserve"
   xmlns="http://www.w3.org/2000/svg"
   xmlns:svg="http://www.w3.org/2000/svg"><defs
     id="defs778" /><g
     id="g934"
     style="display:inline"
     transform="translate(-43.18469,-90.281446)"><path
       id="path926"
       style="opacity:0.75;fill:#ffffff;stroke:#000000;stroke-width:0.264583"
       d="m 81.390381,102.64335 c -0.545009,1.22946 -1.117758,2.42367 -1.707389,3.5202 -0.884449,1.64478 -1.807123,3.06916 -2.731617,4.0597 -0.153996,0.16498 -0.308052,0.31843 -0.461987,0.45837 -0.154021,0.14001 -0.308362,0.26686 -0.461987,0.37982 -1.843315,1.35536 -3.300107,2.38573 -4.468978,3.30212 -0.389652,0.30549 -0.747606,0.59825 -1.076937,0.88625 -0.658529,0.57592 -1.203814,1.13282 -1.665015,1.73271 -0.230633,0.3 -0.44026,0.61105 -0.632519,0.94051 -0.192259,0.32947 -0.367453,0.67755 -0.52865,1.05214 -0.0403,0.0936 -0.07845,0.19347 -0.115239,0.29869 -0.331136,0.94695 -0.520969,2.34819 -0.581359,3.94291 -0.01342,0.35438 -0.02042,0.71818 -0.02119,1.08882 -0.0031,1.48255 0.09387,3.07203 0.28267,4.58577 0.0472,0.37843 0.100111,0.7522 0.158647,1.11828 0.117072,0.73214 0.256702,1.43415 0.417546,2.08256 0.241264,0.9726 0.53018,1.82504 0.86403,2.48046 0.667697,1.3109 1.886575,3.54567 3.242179,5.95985 0.903736,1.60945 1.868297,3.29858 2.771407,4.84673 1.354665,2.32223 2.570485,4.32738 3.234428,5.27048 0.110657,0.15718 0.229711,0.34703 0.355534,0.56637 0.880759,1.53542 2.108039,4.51477 3.331579,7.83105 0.349583,0.94751 0.698929,1.92234 1.03973,2.89905 1.022402,2.9301 1.968168,5.87563 2.617411,8.13904 0.108205,0.37723 0.216284,0.7721 0.322978,1.1808 0.106694,0.4087 0.212293,0.83117 0.316777,1.26401 0.417933,1.73134 0.815408,3.62646 1.169954,5.45031 0.354546,1.82386 0.666265,3.57633 0.912606,5.02295 0.12317,0.72331 0.230094,1.37007 0.31781,1.91099 0.175432,1.08186 0.347007,1.74047 0.347007,1.74047 0,0 0.621434,-1.09218 1.337644,-2.7988 0.358109,-0.85331 0.758114,-1.86025 1.152384,-2.96106 0.52568,-1.46775 1.041125,-3.10246 1.433504,-4.7625 0.1962,-0.83002 0.361622,-1.66631 0.482141,-2.49132 0.06023,-0.4125 0.109628,-0.82218 0.145728,-1.2268 0.018,-0.20231 0.03134,-0.4122 0.04134,-0.6289 0.04925,-1.08349 -0.0015,-2.34028 -0.129191,-3.70365 -0.05109,-0.54535 -0.114319,-1.10737 -0.188619,-1.68258 -0.14853,-1.15046 -0.340657,-2.35249 -0.564307,-3.57136 -0.447309,-2.43774 -1.021365,-4.94398 -1.628324,-7.24659 -0.15174,-0.57565 -0.30554,-1.13874 -0.45992,-1.68465 -0.61753,-2.18366 -1.244492,-4.09499 -1.786971,-5.4622 -0.13562,-0.3418 -0.265534,-0.64984 -0.389124,-0.91932 -0.24719,-0.53898 -0.509841,-1.08052 -0.780831,-1.61954 -1.354958,-2.69512 -2.929987,-5.3251 -3.951696,-7.23109 -0.30651,-0.57179 -0.563289,-1.07851 -0.749309,-1.50223 -0.06203,-0.14124 -0.11573,-0.27317 -0.16123,-0.39532 -0.09105,-0.24431 -0.209138,-0.57665 -0.338998,-0.98496 -0.06493,-0.20415 -0.132855,-0.42689 -0.202054,-0.66766 -0.34611,-1.20385 -0.723435,-2.84765 -0.906405,-4.74803 -0.1098,-1.14022 -0.149597,-2.37282 -0.0708,-3.65869 0.05251,-0.85725 0.157833,-1.73806 0.330213,-2.63085 0.04311,-0.22319 0.09041,-0.44729 0.14211,-0.67179 0.25857,-1.12252 0.627998,-2.25901 1.135848,-3.38687 0.812549,-1.8046 1.613544,-3.45931 2.364713,-5.00952 0.75117,-1.5502 1.452168,-2.99608 2.063957,-4.38319 0.30589,-0.69356 0.589523,-1.37235 0.845943,-2.04225 0.38463,-1.00485 0.708047,-1.98924 0.953947,-2.97295 0.16393,-0.65581 0.293339,-1.31129 0.383439,-1.97197 0.04502,-0.33034 0.08072,-0.66211 0.10542,-0.99581 0.07429,-1.00108 0.11899,-1.8836 0.12299,-2.695439 0.0029,-0.541225 -0.01206,-1.050976 -0.04806,-1.543575 -0.05401,-0.738899 -0.15528,-1.439374 -0.314709,-2.148706 -0.10629,-0.472889 -0.238409,-0.949643 -0.399459,-1.444873 -0.48313,-1.485592 -1.226846,-3.135486 -1.844872,-4.234506 0,0 -2.650834,5.92084 -5.375876,12.068139 z M 120.388,94.809717 c -0.16105,0.49523 -0.29317,0.971984 -0.39946,1.444873 -0.15943,0.709332 -0.2607,1.409807 -0.31471,2.148706 -0.036,0.492599 -0.051,1.00235 -0.0481,1.543575 0.004,0.811839 0.0487,1.694359 0.12299,2.695439 0.0247,0.3337 0.0604,0.66547 0.10542,0.99581 0.0901,0.66068 0.21951,1.31616 0.38344,1.97197 0.2459,0.98371 0.56932,1.9681 0.95395,2.97295 0.25642,0.6699 0.54005,1.34869 0.84594,2.04225 0.61179,1.38711 1.31279,2.83299 2.06396,4.38319 0.75117,1.55021 1.55216,3.20492 2.36471,5.00952 0.50785,1.12786 0.87728,2.26435 1.13585,3.38687 0.0517,0.2245 0.099,0.4486 0.14211,0.67179 0.17238,0.89279 0.2777,1.7736 0.33021,2.63085 0.0788,1.28587 0.039,2.51847 -0.0708,3.65869 -0.18297,1.90038 -0.5603,3.54418 -0.90641,4.74803 -0.0692,0.24077 -0.13712,0.46351 -0.20205,0.66766 -0.12986,0.40831 -0.24795,0.74065 -0.339,0.98496 -0.0455,0.12215 -0.0992,0.25408 -0.16123,0.39532 -0.18602,0.42372 -0.4428,0.93044 -0.74931,1.50223 -1.02171,1.90599 -2.59674,4.53597 -3.9517,7.23109 -0.27099,0.53902 -0.53364,1.08056 -0.78083,1.61954 -0.12359,0.26948 -0.2535,0.57752 -0.38912,0.91932 -0.54248,1.36721 -1.16944,3.27854 -1.78697,5.4622 -0.15438,0.54591 -0.30818,1.109 -0.45992,1.68465 -0.60696,2.30261 -1.18102,4.80885 -1.62833,7.24659 -0.22365,1.21887 -0.41577,2.4209 -0.5643,3.57136 -0.0743,0.57521 -0.13753,1.13723 -0.18862,1.68258 -0.12772,1.36337 -0.17844,2.62016 -0.12919,3.70365 0.01,0.2167 0.0233,0.42659 0.0413,0.6289 0.0361,0.40462 0.0855,0.8143 0.14573,1.2268 0.12052,0.82501 0.28594,1.6613 0.48214,2.49132 0.39238,1.66004 0.90782,3.29475 1.4335,4.7625 0.39427,1.10081 0.79428,2.10775 1.15239,2.96106 0.7162,1.70662 1.33765,2.7988 1.33765,2.7988 0,0 0.17162,-0.65861 0.34701,-1.74047 0.0877,-0.54092 0.19464,-1.18768 0.31781,-1.91099 0.24634,-1.44662 0.55806,-3.19909 0.9126,-5.02295 0.35455,-1.82385 0.75202,-3.71897 1.16996,-5.45031 0.10448,-0.43284 0.21008,-0.85531 0.31677,-1.26401 0.1067,-0.4087 0.21478,-0.80357 0.32298,-1.1808 0.64925,-2.26341 1.59501,-5.20894 2.61741,-8.13904 0.3408,-0.97671 0.69015,-1.95154 1.03973,-2.89905 1.22354,-3.31628 2.45082,-6.29563 3.33158,-7.83105 0.12583,-0.21934 0.24488,-0.40919 0.35554,-0.56637 0.66394,-0.9431 1.87976,-2.94825 3.23442,-5.27048 0.90311,-1.54815 1.86768,-3.23728 2.77141,-4.84673 1.3556,-2.41418 2.57448,-4.64895 3.24218,-5.95985 0.33385,-0.65542 0.62277,-1.50786 0.86403,-2.48046 0.16084,-0.64841 0.30047,-1.35042 0.41755,-2.08256 0.0585,-0.36608 0.11144,-0.73985 0.15864,-1.11828 0.1888,-1.51374 0.28577,-3.10322 0.28267,-4.58577 -7.7e-4,-0.37064 -0.008,-0.73444 -0.0212,-1.08882 -0.0604,-1.59472 -0.25023,-2.99596 -0.58136,-3.94291 -0.0368,-0.10522 -0.0749,-0.20509 -0.11524,-0.29869 -0.1612,-0.37459 -0.33639,-0.72267 -0.52865,-1.05214 -0.19226,-0.32946 -0.40189,-0.64051 -0.63252,-0.94051 -0.4612,-0.59989 -1.00649,-1.15679 -1.66502,-1.73271 -0.32933,-0.288 -0.68728,-0.58076 -1.07693,-0.88625 -1.16887,-0.91639 -2.62567,-1.94676 -4.46898,-3.30212 -0.15363,-0.11296 -0.30797,-0.23981 -0.46199,-0.37982 -0.15393,-0.13994 -0.30799,-0.29339 -0.46199,-0.45837 -0.92449,-0.99054 -1.84716,-2.41492 -2.73161,-4.0597 -0.58963,-1.09653 -1.16238,-2.29074 -1.70739,-3.5202 -2.72504,-6.147299 -5.37587,-12.068139 -5.37587,-12.068139 -0.61803,1.09902 -1.36175,2.748914 -1.84488,4.234506 z m -21.934061,7.009393 c -0.06243,0.76359 -0.13192,1.47109 -0.207223,2.127 -0.451814,3.93545 -1.116396,6.02072 -1.761133,7.31532 -0.323961,0.68458 -0.861786,1.57437 -1.486214,2.63498 -0.46832,0.79545 -0.985008,1.68708 -1.496549,2.65978 -1.023083,1.9454 -2.02496,4.21603 -2.574003,6.69417 -0.274523,1.23907 -0.436184,2.52996 -0.430465,3.85816 7.66e-4,0.17794 0.0106,0.36224 0.02791,0.55242 0.01729,0.19019 0.04252,0.38642 0.07493,0.58705 0.129631,0.80248 0.374476,1.68129 0.689364,2.57865 0.629774,1.79472 1.539499,3.66364 2.367297,5.14542 0.20695,0.37045 0.408402,0.71664 0.599447,1.03146 0.19105,0.31483 0.369562,0.63242 0.536401,0.95292 0.166839,0.3205 0.322423,0.64411 0.468705,0.971 0.292565,0.65376 0.547535,1.32095 0.779798,2.00453 0.232261,0.68358 0.441662,1.3831 0.642855,2.10219 0.201191,0.7191 0.39389,1.45764 0.593245,2.21796 0.04984,0.19007 0.103351,0.46015 0.159163,0.79995 0.111626,0.67959 0.234002,1.63721 0.362252,2.78639 0.192375,1.72377 0.397968,3.87874 0.60048,6.1743 0.405027,4.59111 0.797701,9.74424 1.046965,13.13202 0.166176,2.2585 0.268201,3.73258 0.268201,3.73258 h 5.16e-4 c 3.189859,-0.0409 6.550349,0.12718 9.567349,0 h 5.2e-4 c 0,0 0.10202,-1.47408 0.2682,-3.73258 0.24926,-3.38778 0.64194,-8.54091 1.04696,-13.13202 0.20252,-2.29556 0.40811,-4.45053 0.60048,-6.1743 0.12825,-1.14918 0.25063,-2.1068 0.36226,-2.78639 0.0558,-0.3398 0.10932,-0.60988 0.15916,-0.79995 0.19935,-0.76032 0.39205,-1.49886 0.59324,-2.21796 0.2012,-0.71909 0.4106,-1.41861 0.64286,-2.10219 0.23226,-0.68358 0.48723,-1.35077 0.7798,-2.00453 0.14628,-0.32689 0.30186,-0.6505 0.4687,-0.971 0.16684,-0.3205 0.34535,-0.63809 0.5364,-0.95292 0.19105,-0.31482 0.3925,-0.66101 0.59945,-1.03146 0.8278,-1.48178 1.73752,-3.3507 2.3673,-5.14542 0.31489,-0.89736 0.55973,-1.77617 0.68936,-2.57865 0.0324,-0.20063 0.0576,-0.39686 0.0749,-0.58705 0.0173,-0.19018 0.0271,-0.37448 0.0279,-0.55242 0.006,-1.3282 -0.15594,-2.61909 -0.43047,-3.85816 -0.54904,-2.47814 -1.55092,-4.74877 -2.574,-6.69417 -0.51154,-0.9727 -1.02823,-1.86433 -1.49655,-2.65978 -0.62443,-1.06061 -1.16225,-1.9504 -1.48621,-2.63498 -0.64474,-1.2946 -1.30932,-3.37987 -1.76114,-7.31532 -0.0753,-0.65591 -0.14479,-1.36341 -0.20722,-2.127 -0.0624,-0.7636 -0.11744,-1.58336 -0.21427,-2.023905 H 98.667946 c -0.09657,0.440545 -0.151579,1.260305 -0.214007,2.023905 z m -43.394678,22.14757 c -2.721929,1.17041 -4.90127,2.213 -8.10591,5.18655 -3.204641,2.97354 -3.635718,4.68655 -3.632995,6.39763 -0.0674,2.66946 0.896313,5.28928 1.976624,6.59908 3.499878,4.73706 9.406646,10.17296 17.701762,17.32142 8.295113,7.14852 13.842406,11.39873 16.846517,15.51637 3.004141,4.11758 2.992957,5.44976 3.46516,5.87642 0.472202,0.42666 0.463982,-0.13326 0.323684,-0.86377 -0.02807,-0.1461 -0.06147,-0.29897 -0.100769,-0.45888 -0.31471,-1.2793 -1.013161,-3.00505 -2.466,-5.25033 -1.452818,-2.24528 -3.280026,-4.92346 -5.629114,-7.76748 -1.174618,-1.4221 -2.479858,-2.88528 -3.934126,-4.35684 -1.090549,-1.10354 -2.265012,-2.21192 -3.531051,-3.3104 -0.42195,-0.3661 -0.853962,-0.73156 -1.296562,-1.09502 -1.770828,-1.45416 -3.512552,-2.95512 -5.172811,-4.46123 -0.414969,-0.37644 -0.824836,-0.7532 -1.228865,-1.12964 -0.40412,-0.37654 -0.802683,-0.75286 -1.194242,-1.1281 -0.39147,-0.37515 -0.776119,-0.74985 -1.153418,-1.12241 -0.37738,-0.37265 -0.747377,-0.74331 -1.108977,-1.11208 -0.361589,-0.36876 -0.715187,-0.73557 -1.059367,-1.09916 -2.065117,-2.18148 -3.802299,-4.25806 -5.037418,-6.08955 -0.20585,-0.30524 -0.397502,-0.60353 -0.574642,-0.89452 -0.17715,-0.29098 -0.33572,-0.58204 -0.47594,-0.87281 -0.28045,-0.58155 -0.489124,-1.16128 -0.635103,-1.73375 -0.14597,-0.57246 -0.229283,-1.13795 -0.258383,-1.69033 -0.0144,-0.27619 -0.01543,-0.54893 -0.0041,-0.81804 0.02265,-0.53822 0.09472,-1.06105 0.20774,-1.56269 0.113019,-0.50166 0.266945,-0.98251 0.452685,-1.43661 0.24153,-0.59048 0.541085,-1.12982 0.871265,-1.61851 0.05068,-0.075 0.09808,-0.15507 0.150378,-0.22737 0.13087,-0.18108 0.26653,-0.35325 0.40566,-0.51625 0.13912,-0.163 0.282184,-0.31637 0.427364,-0.45992 0.14509,-0.14346 0.292387,-0.27731 0.441317,-0.39998 h 5.17e-4 c 0.003,-0.002 0.0052,-0.004 0.0072,-0.006 2.380628,-1.96116 4.137492,-3.69909 10.837065,-7.34063 1.886218,-1.02526 2.446,-1.42709 0.532539,-1.26236 -1.913461,0.16473 -5.325755,2.01677 -8.047684,3.18719 z m 91.365389,-1.92503 c 6.69958,3.64154 8.45644,5.37947 10.83707,7.34063 0.002,0.002 0.004,0.004 0.007,0.006 h 5.2e-4 c 0.14893,0.12267 0.29623,0.25652 0.44132,0.39998 0.14518,0.14355 0.28824,0.29692 0.42736,0.45992 0.13913,0.163 0.27479,0.33517 0.40566,0.51625 0.0523,0.0723 0.0997,0.15233 0.15038,0.22737 0.33018,0.48869 0.62973,1.02803 0.87126,1.61851 0.18574,0.4541 0.33967,0.93495 0.45269,1.43661 0.11302,0.50164 0.18509,1.02447 0.20774,1.56269 0.0113,0.26911 0.0103,0.54185 -0.004,0.81804 -0.0291,0.55238 -0.11241,1.11787 -0.25838,1.69033 -0.14598,0.57247 -0.35465,1.1522 -0.6351,1.73375 -0.14022,0.29077 -0.29879,0.58183 -0.47594,0.87281 -0.17714,0.29099 -0.36879,0.58928 -0.57464,0.89452 -1.23512,1.83149 -2.9723,3.90807 -5.03742,6.08955 -0.34418,0.36359 -0.69778,0.7304 -1.05937,1.09916 -0.3616,0.36877 -0.73159,0.73943 -1.10897,1.11208 -0.3773,0.37256 -0.76195,0.74726 -1.15342,1.12241 -0.39156,0.37524 -0.79013,0.75156 -1.19424,1.1281 -0.40403,0.37644 -0.8139,0.7532 -1.22887,1.12964 -1.66026,1.50611 -3.40198,3.00707 -5.17281,4.46123 -0.4426,0.36346 -0.87461,0.72892 -1.29656,1.09502 -1.26604,1.09848 -2.4405,2.20686 -3.53105,3.3104 -1.45427,1.47156 -2.75951,2.93474 -3.93413,4.35684 -2.34909,2.84402 -4.1763,5.5222 -5.62911,7.76748 -1.45284,2.24528 -2.15129,3.97103 -2.466,5.25033 -0.0393,0.15991 -0.0727,0.31278 -0.10077,0.45888 -0.1403,0.73051 -0.14852,1.29043 0.32376,0.86377 0.47227,-0.42666 0.46108,-1.75884 3.46522,-5.87642 3.00411,-4.11764 8.55141,-8.36785 16.84652,-15.51637 8.29512,-7.14846 14.20188,-12.58436 17.70176,-17.32142 1.08143,-1.31116 2.04624,-3.93502 1.97663,-6.60735 10e-4,-1.70833 -0.43022,-3.41801 -3.63393,-6.39046 -3.20371,-2.97245 -5.38305,-4.01504 -8.10498,-5.18546 -2.72193,-1.17041 -6.13422,-3.02245 -8.04771,-3.18718 -1.91349,-0.16473 -1.3537,0.2371 0.53251,1.26236 z" /></g></svg>
