<?xml version="1.0" encoding="UTF-8" standalone="no"?>
<!-- Created with Inkscape (http://www.inkscape.org/) -->

<svg
   width="107.39444mm"
   height="69.250534mm"
   viewBox="0 0 107.39444 69.250537"
   version="1.1"
   id="svg5"
   xml:space="preserve"
   xmlns="http://www.w3.org/2000/svg"
   xmlns:svg="http://www.w3.org/2000/svg"><defs
     id="defs2" /><path
     id="path360"
     style="opacity:0.75;fill:#ffffff;stroke:#000000;stroke-width:0.264583"
     d="M 57.054115,0.3624661 0.28755432,68.105101 13.370993,67.883409 49.769805,21.30279 l 0.02274,6.053377 c -1.151677,0.984246 -1.830252,2.570333 -1.83038,4.827096 1.8e-5,3.918829 3.176862,7.095669 7.095691,7.09569 3.918834,-1.3e-5 7.095673,-3.176856 7.095691,-7.09569 -3.7e-4,-2.360971 -1.844502,-6.186987 -5.018298,-6.32933 z m 2.216919,3.7697957 V 18.767544 l 18.293974,23.947892 -7.699789,-0.101802 a 7.0957236,7.0957236 0 0 0 -5.71593,-2.891814 7.0957236,7.0957236 0 0 0 -7.095691,7.095691 7.0957236,7.0957236 0 0 0 7.095691,7.095691 7.0957236,7.0957236 0 0 0 5.885429,-3.133659 l 25.491467,-0.08113 z m -4.21318,25.6852532 c 1.306483,1e-6 2.36551,1.059265 2.365231,2.365748 -6e-6,1.30628 -1.05895,2.365229 -2.365231,2.36523 -1.306276,-6e-6 -2.365224,-1.058954 -2.36523,-2.36523 -2.79e-4,-1.306479 1.058752,-2.365742 2.36523,-2.365748 z m -9.024255,9.883118 c -2.160093,-0.04681 -4.31439,0.889589 -5.74797,2.722315 -1.454329,1.859868 -1.888586,4.321412 -1.158069,6.566524 l -15.641422,20.128487 83.628482,-0.08837 -9.420609,-11.456148 -55.745434,-0.0124 3.715535,-3.674195 c 2.255769,0.067 4.409129,-0.942765 5.799646,-2.720247 2.414418,-3.086713 1.869193,-7.546184 -1.217496,-9.960632 -1.253978,-0.980861 -2.734705,-1.473304 -4.212663,-1.505334 z m -0.219625,4.729427 c 0.52992,-0.01387 1.067591,0.149673 1.517737,0.501778 1.028897,0.804817 1.210466,2.291306 0.40566,3.320211 -0.804715,1.029234 -2.291146,1.211108 -3.320211,0.406177 -1.029063,-0.804939 -1.21082,-2.291837 -0.40566,-3.320728 0.45271,-0.578756 1.121148,-0.889607 1.802474,-0.907438 z m 18.335315,0.02222 a 2.3652413,2.3652413 0 0 1 2.365747,2.36523 2.3652413,2.3652413 0 0 1 -2.365747,2.365231 2.3652413,2.3652413 0 0 1 -2.36523,-2.365231 2.3652413,2.3652413 0 0 1 2.36523,-2.36523 z" /></svg>
