<?xml version="1.0" encoding="UTF-8" standalone="no"?>
<!-- Created with Inkscape (http://www.inkscape.org/) -->

<svg
   width="102.59995mm"
   height="141.90968mm"
   viewBox="0 0 102.59995 141.90968"
   version="1.1"
   id="svg5"
   xml:space="preserve"
   xmlns="http://www.w3.org/2000/svg"
   xmlns:svg="http://www.w3.org/2000/svg"><defs
     id="defs2" /><g
     id="layer1"
     transform="translate(-36.17962,-55.043734)"><path
       id="path2085"
       style="opacity:0.75;fill:#ffffff;stroke:#000000;stroke-width:0.264583"
       d="M 88.280916,55.541829 C 84.028808,73.623257 74.426445,87.225422 61.800362,98.522152 73.557284,91.199133 84.429181,90.7143 96.499536,91.062142 87.86017,98.566553 85.779781,109.13866 93.392749,119.52604 c 7.612971,10.38738 31.789891,25.66549 30.387291,41.87134 -1.4026,16.20586 -7.96169,20.66693 -15.76389,30.45241 11.07087,-4.78099 25.67832,-14.87304 29.73617,-36.00556 4.05784,-21.13251 -6.40175,-40.61252 -17.01757,-52.12705 C 110.11893,92.202655 94.559665,75.396557 88.280916,55.541829 Z m -0.248563,39.457024 c -14.682798,0.727927 -25.516908,3.844999 -34.706409,12.666407 -9.189501,8.82141 -17.677623,20.32551 -16.973124,42.68629 0.704499,22.36077 19.724314,37.3053 27.232963,40.78614 7.508648,3.48083 24.117837,7.95272 32.721517,4.34909 8.60368,-3.60364 13.98538,-8.57592 15.79128,-17.0155 1.80591,-8.43958 -1.10006,-14.32528 -6.83989,-19.25309 -0.15645,7.63427 -1.90016,10.21462 -9.119855,11.77964 4.132855,-2.77843 5.968715,-6.80367 5.894215,-13.52372 -0.0745,-6.72005 -6.945827,-18.60085 -19.194179,-25.99583 3.818147,11.01586 3.708007,15.24433 -1.219564,22.65856 -1.31575,-3.06298 -2.44743,-8.03242 1.092957,-12.46177 -9.289428,5.01265 -6.801513,15.80827 -5.857007,18.90686 -1.311408,1.5213 -2.443697,2.37851 -3.455603,2.81998 -1.508739,-1.67808 -4.658137,-4.50565 -9.180318,-5.13405 1.630041,2.44195 1.595601,4.56422 1.541508,5.1909 -1.625585,0.71011 -3.494741,2.81213 -6.029089,8.10855 -1.401426,-22.97103 15.24608,-33.37561 -5.265829,-41.22901 7.701272,-5.70383 14.260356,-3.97555 19.506303,-2.40657 -5.019578,-6.48743 -3.914982,-15.09718 -3.135726,-17.60668 0.779257,-2.5095 2.859375,-11.21758 17.19585,-15.326197 z M 69.792639,129.19832 c 2.278494,3.45538 2.333713,7.46225 0.379822,11.27321 -1.953891,3.81096 -3.593959,10.25693 0,14.63011 0.617332,-4.81002 2.705088,-9.05209 4.813143,-13.36352 2.108055,-4.31144 -0.454482,-9.95031 -5.192965,-12.5398 z" /></g></svg>
