<?xml version="1.0" encoding="UTF-8" standalone="no"?>
<!-- Created with Inkscape (http://www.inkscape.org/) -->

<svg
   width="65.251076mm"
   height="80.469803mm"
   viewBox="0 0 65.251076 80.469802"
   version="1.1"
   id="svg5"
   xml:space="preserve"
   xmlns="http://www.w3.org/2000/svg"
   xmlns:svg="http://www.w3.org/2000/svg"><defs
     id="defs2" /><g
     id="layer1"
     transform="translate(-73.466041,-138.06927)"><path
       id="path923"
       style="opacity:0.75;fill:#ffffff;stroke:#000000;stroke-width:0.264583"
       d="m 92.264136,138.1988 c 15.252234,9.49521 17.361214,16.74523 17.361214,16.74523 l -14.580505,-6.32778 c -7.544675,2.01891 -20.410826,1.57757 -21.383191,1.32964 4.938451,2.1908 7.830529,5.80481 7.830529,5.80481 8.619293,1.34798 23.387207,12.73101 23.387207,12.73101 0,0 -21.310809,7.62776 -29.692765,3.44578 1.113469,0.78659 9.263651,8.47685 12.197188,11.42204 4.796535,-1.50448 8.956496,-1.04088 14.046167,1.24282 l 12.98629,-7.61349 10.58902,5.35058 8.39949,-0.64906 c -0.76397,-3.3163 -0.48526,-7.20653 0.97048,-10.27275 -1.60842,-1.91088 -2.52116,-6.43787 -4.00544,-10.99055 -6.99362,-7.44369 -18.52625,-18.15665 -38.105684,-22.21828 z m -18.602482,11.74709 c -0.02211,-0.01 -0.04343,-0.0202 -0.06563,-0.03 -0.0018,0.009 0.02533,0.0197 0.06563,0.03 z m 1.412317,21.917 c -0.0063,-0.001 -0.01091,1e-5 -0.01292,0.003 0.03988,0.0208 0.08198,0.0397 0.122474,0.0599 -0.05367,-0.0377 -0.09102,-0.0598 -0.109554,-0.0631 z m 3.692281,11.29699 c 9.325985,8.77343 9.367618,5.4549 13.666866,8.09666 0.188628,0.29696 9.807672,-1.02267 9.807672,-1.02267 l 3.18792,2.13113 c -0.70692,3.75393 3.13727,8.17211 3.13727,8.17211 l 0.0703,-4.8059 2.15543,1.02836 3.41529,4.94595 c 0,0 0.24142,-4.91176 1.36581,-5.55522 l 4.52427,5.47667 0.031,-6.49366 c 0,0 1.11612,4.11253 2.20555,5.29425 0,0 0.42402,-4.08261 0.0196,-5.56762 0.97959,2.34059 3.71346,5.30769 3.71346,5.30769 0,0 0.4013,-4.09304 0.90848,-5.80843 0,0 0.85221,3.54087 0.82889,5.38468 1.99812,-1.825 1.86913,-5.21312 1.86913,-5.21312 0,0 1.56126,2.71346 0.66714,5.26325 l 4.62298,-4.53719 c 0,0 1.93692,-1.27194 3.57446,-3.44889 -1.21999,-1.07409 -3.13328,-3.65789 -3.5357,-5.53971 l -2.52957,-0.35192 -4.74183,1.45831 -3.64422,-1.99936 -2.33164,0.59583 c -9.93773,8.0551 -16.5039,1.04334 -16.5039,1.04334 l -3.38222,0.89556 c -2.476374,-1.48439 -10.44647,-2.99892 -12.482445,-2.14457 0,0 -6.20835,-1.16022 -10.620023,-2.60553 z m 23.735498,8.79585 -7.450188,0.80201 c 10e-7,0 1.508806,2.35649 1.171505,3.73828 -0.337305,1.38178 -1.330838,2.12365 -3.30109,2.61224 -1.970258,0.48859 -5.179529,-1.67897 -5.179529,-1.67897 l 0.0677,1.27486 c 4.574351,4.21822 9.042823,11.54847 10.224699,14.74587 -0.100811,-0.16386 8.298193,-0.0605 8.298193,-0.0605 l 8.12199,1.54306 3.73207,1.97455 5.48649,1.49862 7.76438,-0.44752 4.06022,-0.8723 c 0,0 -0.41303,-2.18182 -1.47795,-3.95118 l 5.2e-4,-5.1e-4 c -0.8193,-1.54148 -2.02058,-3.39056 -1.93528,-5.77123 0,0 -0.94085,-4.02294 -2.45773,-6.94841 -0.36323,1.90641 -2.57039,6.49159 -2.57039,6.49159 0,0 -0.51763,-3.36124 -1.56011,-5.59655 -0.75329,2.82032 -4.48448,7.54941 -4.48448,7.54941 0,0 0.63215,-3.46272 -0.62219,-6.07509 -1.89099,4.24051 -3.70623,4.115 -3.70623,4.115 0,0 0.10476,-3.53124 -0.0636,-6.46834 -2.8749,3.78596 -4.72671,3.1169 -6.08955,4.9227 0,0 -0.7716,-3.17372 -0.6935,-4.88704 -0.96661,1.48011 -3.98322,3.55947 -3.98322,3.55947 0,0 -2.37508,-3.06551 -2.93522,-5.06894 -0.56014,-2.00344 -0.41755,-7.00112 -0.41755,-7.00112 z" /></g></svg>
