<?xml version="1.0" encoding="UTF-8" standalone="no"?>
<!-- Created with Inkscape (http://www.inkscape.org/) -->

<svg
   width="110.66269mm"
   height="123.28268mm"
   viewBox="0 0 110.66269 123.28268"
   version="1.1"
   id="svg5"
   xml:space="preserve"
   xmlns="http://www.w3.org/2000/svg"
   xmlns:svg="http://www.w3.org/2000/svg"><defs
     id="defs2" /><g
     id="layer1"
     transform="translate(-50.079274,-45.111979)"><path
       id="path3042"
       style="opacity:0.75;fill:#ffffff;fill-opacity:1;stroke:#000000;stroke-width:0.264583;stroke-opacity:1"
       d="m 106.71751,-41.935641 c -8.563198,8.471988 -6.77723,33.1925061 1.85105,44.794903 4.17798,4.012818 7.03689,4.1857042 15.9614,7.0670345 7.65124,2.4702455 14.48441,3.5990305 16.9247,3.1633715 2.44028,-0.435666 2.34021,-0.181734 4.63463,-0.768863 26.81157,21.338052 40.02201,37.960095 44.12514,36.087993 1.03942,-0.557993 2.41697,-3.392009 2.45368,-3.467785 0.0749,-0.03524 2.92501,-1.383141 3.49422,-2.416769 1.91595,-4.082863 -14.56372,-17.470494 -35.61344,-44.5090347 0.61166,-2.2879938 0.35666,-2.1906414 0.81845,-4.626129 0.46177,-2.4354946 -0.59381,-9.2803313 -2.98197,-16.9575993 -2.78559,-8.954865 -2.92787,-11.815451 -6.89572,-16.036153 -11.50935,-8.752017 -36.20894,-10.802965 -44.77214,-2.330969 z m 8.33859,7.939754 a 23.547916,18.123959 45.30676 0 1 29.44551,3.993025 23.547916,18.123959 45.30676 0 1 3.6775,29.48657695 23.547916,18.123959 45.30676 0 1 -29.44551,-3.99302465 23.547916,18.123959 45.30676 0 1 -3.6775,-29.4865773 z m 75.82166,13.247287 a 13.973895,22.94418 0 0 0 -6.71345,19.603898 13.973895,22.94418 0 0 0 13.97442,22.944179 13.973895,22.94418 0 0 0 13.97345,-22.9439993 13.973895,22.94418 0 0 0 -13.97369,-22.9441747 13.973895,22.94418 0 0 0 -7.26073,3.340097 z m -63.79955,63.120752 a 22.944179,13.973895 0.61352026 0 0 -3.41766,7.224549 22.944179,13.973895 0.61352026 0 0 22.79324,14.218565 22.944179,13.973895 0.61352026 0 0 23.09267,-13.727333 22.944179,13.973895 0.61352026 0 0 -22.79323,-14.218565 22.944179,13.973895 0.61352026 0 0 -19.67502,6.502784 z"
       transform="rotate(44.69324)" /></g></svg>
