<?xml version="1.0" encoding="UTF-8" standalone="no"?>
<!-- Created with Inkscape (http://www.inkscape.org/) -->

<svg
   width="85.778259mm"
   height="97.74984mm"
   viewBox="0 0 85.778259 97.749843"
   version="1.1"
   id="svg5"
   xml:space="preserve"
   xmlns="http://www.w3.org/2000/svg"
   xmlns:svg="http://www.w3.org/2000/svg"><defs
     id="defs2" /><g
     id="g1582"
     style="display:inline"
     transform="translate(-18.675331,6.0471529)"><path
       id="path1574"
       style="opacity:0.75;fill:#ffffff;stroke:#000000;stroke-width:0.264583;stroke-opacity:1"
       d="m 51.63044,-5.9582926 c 0,0 -21.207295,23.3896286 -21.372855,22.9267656 -2.30923,7.279857 3.10627,22.700423 3.10627,22.700423 0.628814,5.254782 5.347266,13.910184 5.879744,13.954704 1.896751,0.158567 3.630024,-0.964857 5.644617,0.86248 1.413993,-6.04489 4.035398,-12.607494 5.801713,-17.560685 -5.032542,1.722789 -7.364137,1.469049 -9.172567,-1.019576 C 40.24506,34.15497 40.486807,30.994726 40.733431,28.536759 41.937279,16.538625 51.63044,-5.9582926 51.63044,-5.9582926 Z m 19.868038,0 c 0,0 9.693162,22.4969176 10.897009,34.4950516 0.246624,2.457967 0.488372,5.618211 -0.783931,7.36906 -1.808429,2.488625 -4.140025,2.742365 -9.172567,1.019576 1.766315,4.953191 4.387721,11.515795 5.801713,17.560685 2.014593,-1.827337 3.747867,-0.703913 5.644617,-0.86248 0.532478,-0.04452 5.25093,-8.699922 5.879744,-13.954704 0,0 5.415501,-15.420566 3.106271,-22.700423 C 92.705773,17.431336 71.498478,-5.9582926 71.498478,-5.9582926 Z M 52.220068,-0.37052002 47.452401,12.601298 c -2.762857,7.624633 -3.37636,11.203176 -0.04806,15.670878 2.083498,2.053528 7.11623,4.452281 8.093562,3.325895 0.0036,1.05153 0.241021,3.9947 0.303341,4.0566 l 4.455542,4.42557 0.04289,-9.017021 -4.467945,-4.524788 c 0.356144,-3.219881 1.478535,-2.671457 5.625497,-2.701127 l 0.02739,-17.1849979 c 0,0 -5.046817,-6.72132137 -9.26455,-7.02282712 z m 18.688782,0 C 66.691116,-0.06901427 61.644299,6.6523071 61.644299,6.6523071 l 0.02739,17.1849979 c 4.146991,0.02967 5.269353,-0.518754 5.625496,2.701127 l -4.467944,4.524788 0.04289,9.017021 4.455542,-4.42557 c 0.06232,-0.0619 0.299716,-3.00507 0.303341,-4.0566 0.977332,1.126386 6.010065,-1.272367 8.093563,-3.325895 3.3283,-4.467702 2.714796,-8.046245 -0.04806,-15.670878 z M 18.781799,34.965308 c 0,0 8.653178,11.733003 9.642823,18.501713 0.476765,0.666164 -1.213974,2.573025 -1.010275,3.985803 0.338475,2.34752 2.057652,4.980976 3.087667,5.315438 1.404339,0.456009 2.817172,-2.476226 3.463355,-1.56683 6.426614,9.044401 6.831781,10.374096 10.295495,21.507731 1.506627,2.944634 4.311882,8.937439 4.311882,8.937439 0,0 -1.078968,-27.386592 -13.013676,-40.139668 z m 85.565321,0 -16.777271,16.541626 C 75.635141,64.26001 74.556173,91.646602 74.556173,91.646602 c 0,0 2.805255,-5.992805 4.311881,-8.937439 3.463715,-11.133635 3.868881,-12.46333 10.295496,-21.507731 0.646182,-0.909396 2.059016,2.022839 3.463354,1.56683 1.030015,-0.334462 2.749192,-2.967918 3.087667,-5.315438 0.2037,-1.412778 -1.48704,-3.319639 -1.010274,-3.985803 0.989645,-6.76871 9.642823,-18.501713 9.642823,-18.501713 z m -48.875054,1.646411 c -5.691797,3.256266 -10.745957,24.591172 -5.488037,34.259407 1.999805,3.677233 5.958293,11.054106 5.958293,11.054106 0,0 -3.483048,-9.470147 -3.606498,-14.424959 1.161572,-9.457605 4.155301,-19.521289 4.155301,-19.521289 0,0 -1.231693,-3.448353 -1.411283,-5.252393 -0.20233,-2.032466 0.392224,-6.114872 0.392224,-6.114872 z m 12.184786,0 c 0,0 0.594554,4.082406 0.392224,6.114872 -0.179589,1.80404 -1.411283,5.252393 -1.411283,5.252393 0,0 2.993729,10.063684 4.155302,19.521289 -0.123451,4.954812 -3.606498,14.424959 -3.606498,14.424959 0,0 3.958487,-7.376873 5.958292,-11.054106 5.25792,-9.668235 0.203761,-31.003141 -5.488037,-34.259407 z" /></g></svg>
