<?xml version="1.0" encoding="UTF-8" standalone="no"?>
<!-- Created with Inkscape (http://www.inkscape.org/) -->

<svg
   width="46.632744mm"
   height="85.065773mm"
   viewBox="0 0 46.632744 85.065773"
   version="1.1"
   id="svg5"
   xml:space="preserve"
   xmlns="http://www.w3.org/2000/svg"
   xmlns:svg="http://www.w3.org/2000/svg"><defs
     id="defs2" /><g
     id="layer3"
     transform="translate(-79.892574,-102.63865)"><path
       id="path619"
       style="display:inline;opacity:0.75;fill:#ffffff;stroke:#000000;stroke-width:0.264583"
       d="m 90.511271,105.67262 c 0.0248,8.4642 -0.222536,14.92304 -0.667143,19.79982 -0.837876,14.07938 -6.08095,13.85039 -8.676473,26.25163 -1.651669,9.09775 -0.889777,27.63335 -1.112076,27.80864 2.766562,6.15303 7.135007,7.32248 10.317716,8.00881 l 1.056783,-38.09793 c 0.714303,-7.86145 6.447483,-10.64085 11.778882,-10.64085 5.33139,0 11.06454,2.7794 11.77885,10.64085 l 1.05679,38.09793 c 3.18272,-0.68633 7.55114,-1.85578 10.31771,-8.00881 -0.2223,-0.17529 0.5396,-18.71089 -1.11207,-27.80864 -2.59554,-12.40124 -7.8386,-12.17225 -8.67648,-26.25163 -0.44461,-4.87678 -0.69246,-11.33562 -0.66766,-19.79982 -4.9302,-2.29403 -10.27498,-2.90166 -12.69701,-2.90168 -2.42204,-3e-5 -7.767357,0.60752 -12.697819,2.90168 z m -2.411222,15.96853 c -3.806584,0.13561 -6.782437,3.33149 -6.646623,7.13807 0.118976,3.03735 2.212525,5.63865 5.154207,6.40426 0.282957,-0.72818 0.54858,-1.49531 0.791167,-2.31976 -1.980804,-0.43093 -3.419927,-2.14628 -3.500045,-4.17183 -0.08744,-2.45572 1.832391,-4.51738 4.28811,-4.60489 0.19161,-3e-4 0.383039,0.0118 0.573092,0.0362 0.0257,-0.51294 0.04633,-1.04184 0.05943,-1.59111 0.0154,-0.27802 0.02899,-0.56414 0.04289,-0.85112 -0.253146,-0.0273 -0.507612,-0.0406 -0.762227,-0.0398 z m 30.217791,0 c -0.25461,-8.2e-4 -0.50908,0.0125 -0.76222,0.0398 0.0139,0.28698 0.0275,0.5731 0.0429,0.85112 0.0131,0.54927 0.0332,1.07817 0.0589,1.59111 0.19022,-0.0244 0.38183,-0.0365 0.57361,-0.0362 2.45551,0.0878 4.37504,2.14936 4.28759,4.60489 -0.0801,2.0254 -1.51893,3.74069 -3.49953,4.17183 0.24259,0.82445 0.50821,1.59158 0.79117,2.31976 2.94148,-0.7658 5.03478,-3.36706 5.15369,-6.40426 0.13582,-3.80638 -2.83973,-7.00219 -6.64611,-7.13807 z m -15.12311,18.29811 c -6.03105,1.1e-4 -10.920153,4.88922 -10.920259,10.92027 -1.76e-4,6.03125 4.889009,10.92067 10.920259,10.92078 6.03146,1.8e-4 10.92097,-4.88932 10.92079,-10.92078 -1.1e-4,-6.03126 -4.88953,-10.92045 -10.92079,-10.92027 z m 0,6.60683 c 2.38224,2e-5 4.31342,1.9312 4.31344,4.31344 -2e-5,2.38224 -1.9312,4.31341 -4.31344,4.31343 -2.38223,-2e-5 -4.313405,-1.9312 -4.313427,-4.31343 1.7e-5,-2.38224 1.931187,-4.31342 4.313427,-4.31344 z" /></g></svg>
