<?xml version="1.0" encoding="UTF-8" standalone="no"?>
<!-- Created with Inkscape (http://www.inkscape.org/) -->

<svg
   width="80.793564mm"
   height="90.823959mm"
   viewBox="0 0 80.793564 90.823959"
   version="1.1"
   id="svg5"
   xml:space="preserve"
   xmlns="http://www.w3.org/2000/svg"
   xmlns:svg="http://www.w3.org/2000/svg"><defs
     id="defs2" /><g
     id="layer1"
     transform="translate(-37.358394,-92.744542)"><path
       id="path1338-1"
       style="display:inline;opacity:0.75;fill:#ffffff;stroke:#000000;stroke-width:0.264583"
       d="m 77.755435,92.876834 c -4.029019,-2.58e-4 -6.592693,0.865289 -9.878983,3.650423 0,0 -3.274194,-1.0732 -7.113778,-0.383439 0.29734,4.317252 -0.733057,9.355712 -2.474784,12.382192 0,0 -3.695827,-2.49996 -4.561996,-3.06958 -0.672869,-0.0813 -1.535118,0.66701 -1.701188,1.39526 -0.166079,0.72826 0.867345,2.21617 1.237134,4.32532 0.36979,2.10917 0.528989,4.71096 -2.319755,6.41769 -2.848764,1.70672 -11.83368,-0.7906 -12.990938,-0.97668 -0.49993,0.47664 -0.52772,1.0481 -0.38654,1.88361 2.808894,3.34682 6.494852,6.42812 8.737968,13.11496 2.166046,-9.21087 7.205156,-13.73479 13.157336,-16.00626 -0.01181,-0.11496 -0.02008,-0.23026 -0.0248,-0.34572 -1.51e-4,-3.11301 2.523335,-5.63672 5.636348,-5.63686 2.410488,0.005 4.550793,1.54291 5.325256,3.82561 0.729082,-0.0544 1.454426,-0.0968 2.174545,-0.13281 -0.307589,-0.70546 -0.467452,-1.46644 -0.469739,-2.23604 1.36e-4,-3.11221 2.522852,-5.63506 5.653918,-5.6348 3.131067,2.6e-4 5.653266,2.52311 5.653402,5.63531 -0.0023,0.7696 -0.162151,1.53058 -0.469739,2.23604 0.720119,0.036 1.445463,0.0784 2.174545,0.13281 0.774463,-2.28269 2.914768,-3.82026 5.325256,-3.8256 3.113014,1.4e-4 5.636499,2.52384 5.636348,5.63686 -0.0047,0.11546 -0.01298,0.23076 -0.0248,0.34572 5.952179,2.27146 10.991299,6.79538 13.157339,16.00625 2.24312,-6.68683 5.92908,-9.76814 8.73797,-13.11496 0.14118,-0.83551 0.11339,-1.40696 -0.38654,-1.8836 -1.15726,0.18608 -10.14217,2.68339 -12.99094,0.97668 -2.84874,-1.70674 -2.68955,-4.30853 -2.31976,-6.41769 0.36979,-2.10916 1.40322,-3.59706 1.23714,-4.32532 -0.16607,-0.72825 -1.02832,-1.47653 -1.70119,-1.39527 -0.86616,0.56962 -4.561998,3.06958 -4.561998,3.06958 -1.741727,-3.02648 -2.772124,-8.06493 -2.474784,-12.382186 -3.839583,-0.68976 -7.113778,0.38344 -7.113778,0.38344 -3.28629,-2.785135 -5.849448,-3.650681 -9.878467,-3.65094 z M 55.453438,119.86588 c -1.488468,0.81043 -2.860291,2.65462 -2.860291,2.65462 0,0 3.488467,-0.33712 6.491593,1.99626 0.595793,3.63088 6.542405,10.51765 8.981881,13.41417 2.439477,2.89651 3.47679,2.02468 3.47679,2.02468 0.645256,-1.31029 1.225869,-6.14578 0.507463,-8.92193 -0.718404,-2.77616 -3.87367,-5.0478 -6.954097,-6.58048 -3.080428,-1.5327 -7.437801,-4.18973 -9.643339,-4.58732 z m 44.603482,0 c -2.20554,0.39759 -6.563431,3.05462 -9.643859,4.58732 -3.080428,1.53268 -6.235177,3.80432 -6.953581,6.58048 -0.718405,2.77615 -0.13831,7.61164 0.506946,8.92193 0,0 1.037315,0.87183 3.47679,-2.02468 2.439478,-2.89652 8.386604,-9.78329 8.982398,-13.41417 3.003126,-2.33338 6.491596,-1.99626 6.491596,-1.99626 0,0 -1.37182,-1.84419 -2.86029,-2.65462 z m -45.878857,9.14208 c -0.0594,2.58753 -1.709973,3.16673 -1.709973,3.16673 0,0 0.871204,5.78341 2.406571,9.24647 1.535365,3.46306 4.799887,5.77738 7.220232,11.02 0,0 1.866503,-7.31079 6.079732,-11.96982 -5.15997,0.97755 -7.563299,0.1008 -9.183419,-1.20354 -1.620119,-1.30435 -4.120424,-5.62747 -4.813143,-10.25984 z m 47.154227,0 c -0.69272,4.63237 -3.193538,8.95549 -4.813659,10.25984 -1.620119,1.30434 -4.022932,2.18109 -9.182902,1.20354 4.213229,4.65903 6.079732,11.96982 6.079732,11.96982 2.420344,-5.24262 5.684351,-7.55694 7.219719,-11.02 1.53536,-3.46306 2.40708,-9.24647 2.40708,-9.24647 0,0 -1.65057,-0.5792 -1.70997,-3.16673 z M 69.169396,154.4307 c -0.01516,0.004 -0.02309,0.0258 -0.04031,0.0238 -0.213752,0.73179 -0.0061,1.50387 0.03876,2.24793 0.05725,-0.11301 0.08112,-0.83383 0.115238,-1.18236 0.03287,0.1933 0.09205,1.06599 0.148828,1.51929 0.06647,0.0276 0.08641,-0.84649 0.125057,-1.17409 0.04534,0.2027 0.102454,1.09038 0.160714,1.55597 0.06642,-0.48431 0.08725,-0.97307 0.128674,-1.45985 0.04594,0.17673 0.108266,1.15297 0.170016,1.63762 0.04582,-0.53366 0.09233,-1.06712 0.129708,-1.60145 0.06152,-0.0866 0.08257,0.76947 0.129191,1.04335 0.05989,-0.0979 0.07752,-0.79457 0.114722,-1.12862 0.03399,0.77674 0.129258,1.54883 0.203088,2.32234 0.0613,-0.76373 0.141012,-1.52652 0.172082,-2.29237 0.02607,0.25662 0.09924,1.15389 0.15658,1.6552 0.06934,-0.44594 0.07745,-0.89845 0.12144,-1.3472 0.04773,0.71779 0.126034,1.43301 0.197404,2.1487 0.06029,-0.71054 0.124778,-1.42083 0.167948,-2.13268 0.03711,0.73497 0.122573,1.46623 0.194303,2.19831 0.05774,-0.31539 0.112654,-1.24865 0.159164,-1.80144 0.01658,0.87809 0.06936,1.75492 0.114205,2.63188 0.09777,-0.71886 0.19451,-1.43789 0.28267,-2.15801 0.02378,0.81066 0.06815,1.62053 0.111104,2.43035 0.122199,-0.93133 0.26078,-1.86089 0.34985,-2.79622 0.03276,1.20704 0.218096,2.40215 0.338997,3.60185 0.06979,-0.93928 0.139737,-1.87861 0.193787,-2.81895 0.08947,1.09783 0.22042,2.19166 0.343131,3.28611 0.07662,-1.03086 0.154254,-2.06173 0.211873,-3.09387 0.08602,1.25985 0.245996,2.51288 0.38344,3.76773 0.06772,-0.90026 0.133352,-1.8007 0.191202,-2.70165 0.07017,1.50539 0.182927,3.00834 0.290939,4.51136 0.193903,-1.68124 0.393333,-3.36631 0.543636,-5.04931 0.167521,2.02632 0.531866,4.02872 0.821655,6.03943 0.06302,-1.8617 0.144219,-3.72323 0.155029,-5.58623 0.133711,1.53418 0.312174,3.06395 0.485242,4.59404 0.112468,-1.51968 0.227702,-3.03932 0.311092,-4.56096 0.143798,1.80418 0.360934,3.60131 0.56224,5.39967 0.0457,-0.60524 0.09042,-1.2105 0.133842,-1.81591 0.04074,-0.81318 0.114243,-1.62707 0.168982,-2.4412 0.05474,0.81413 0.128755,1.62801 0.169498,2.4412 0.04342,0.60541 0.08814,1.21067 0.133842,1.81591 0.201305,-1.79836 0.418442,-3.59549 0.56224,-5.39967 0.08339,1.52164 0.198624,3.04128 0.311092,4.56096 0.173068,-1.53009 0.35153,-3.05986 0.485242,-4.59404 0.01081,1.863 0.09201,3.72453 0.155029,5.58623 0.28979,-2.01071 0.654135,-4.01311 0.821655,-6.03943 0.150303,1.683 0.349734,3.36807 0.543636,5.04931 0.108011,-1.50302 0.220767,-3.00597 0.290939,-4.51136 0.05785,0.90095 0.123487,1.80139 0.191202,2.70165 0.137444,-1.25485 0.297417,-2.50788 0.38344,-3.76773 0.05762,1.03214 0.135253,2.06301 0.211873,3.09387 0.122711,-1.09445 0.253664,-2.18828 0.343131,-3.28611 0.05405,0.94034 0.123992,1.87967 0.193787,2.81895 0.120901,-1.1997 0.30624,-2.39481 0.338997,-3.60185 0.08907,0.93533 0.227651,1.86489 0.34985,2.79622 0.04295,-0.80982 0.08732,-1.61969 0.111104,-2.43035 0.08816,0.72012 0.184903,1.43915 0.28267,2.15801 0.04485,-0.87696 0.09762,-1.75379 0.114205,-2.63188 0.04651,0.55279 0.100906,1.48605 0.158647,1.80144 0.07173,-0.73208 0.15771,-1.46334 0.19482,-2.19831 0.04317,0.71185 0.107657,1.42214 0.167948,2.13268 0.07137,-0.71569 0.149673,-1.43091 0.197404,-2.1487 0.04399,0.44875 0.0521,0.90126 0.12144,1.3472 0.05734,-0.50131 0.130515,-1.39858 0.15658,-1.6552 0.03107,0.76585 0.110787,1.52864 0.172082,2.29237 0.07383,-0.77351 0.169099,-1.5456 0.203089,-2.32234 0.0372,0.33405 0.05432,1.03074 0.114204,1.12862 0.04662,-0.27388 0.06819,-1.12995 0.129708,-1.04335 0.03738,0.53433 0.08388,1.06779 0.129708,1.60145 0.06175,-0.48465 0.124072,-1.46089 0.170016,-1.63762 0.04142,0.48678 0.06174,0.97554 0.128157,1.45985 0.05826,-0.46559 0.115371,-1.35327 0.160714,-1.55597 0.03865,0.3276 0.05911,1.20171 0.125574,1.17409 0.05678,-0.4533 0.115442,-1.32599 0.148311,-1.51929 0.03412,0.34853 0.0585,1.06935 0.115755,1.18236 0.0449,-0.74406 0.252506,-1.51614 0.03876,-2.24793 -0.01722,0.002 -0.02515,-0.0203 -0.04031,-0.0238 -0.185326,0.22548 -0.08758,0.70019 -0.191203,0.17208 -0.146125,-0.31066 -0.267001,0.62002 -0.2651,0.03 -0.262724,-0.32834 -0.222907,0.76639 -0.291455,0.13023 -0.258036,-0.32776 -0.230747,0.74385 -0.282153,0.1142 -0.267634,-0.33277 -0.184528,0.83228 -0.252181,0.16072 -0.294083,-0.73661 -0.347598,1.15118 -0.318844,0.23874 -0.03127,-0.42811 -0.293226,-0.25068 -0.296106,0.015 -0.06389,-0.25315 -0.276863,-0.44799 -0.309542,-0.003 -0.01887,0.22841 -0.0589,0.66965 -0.05323,0.19224 0.0066,-0.5061 -0.432367,-0.26882 -0.335896,0.108 -0.0035,0.24948 -0.04357,0.60135 -0.04341,0.14573 0.07124,-0.2906 -0.376134,-0.92829 -0.408243,-0.31057 -0.03381,0.56355 -0.0117,0.1526 -0.258382,-0.0341 -0.201594,0.21119 -0.167378,1.09401 -0.196888,0.34262 -0.08747,-0.56056 -0.511431,-0.17825 -0.440283,0.19792 -0.0071,0.362 -0.09269,0.40212 -0.07235,0.0124 0.02678,-0.49919 -0.548563,-0.39799 -0.466638,0.0661 -0.0282,0.22546 -0.08263,0.97979 -0.08165,0.34882 0.08133,-0.53578 -0.590106,-0.75957 -0.526066,-0.0806 -0.02965,0.25407 -0.08521,1.03418 -0.10542,0.35244 0.07658,-0.40739 -0.451375,-1.36634 -0.656807,-0.55552 -0.05437,0.25987 -0.111675,1.01433 -0.116272,0.32607 0.0894,-0.42019 -0.484708,-1.10618 -0.633553,-0.37207 -0.193998,0.41888 -0.244549,1.56505 -0.283704,1.57769 -0.01459,-0.64846 0.0034,-1.32168 -0.251664,-1.93167 -0.642001,-0.13376 -0.454819,0.91259 -0.57981,1.28364 -0.112641,-0.4738 0.08563,-1.18408 -0.448551,-1.42937 -0.423351,0.22972 -0.341921,0.88142 -0.42013,1.34772 -0.07823,-0.46631 0.0027,-1.11799 -0.420646,-1.34772 -0.534179,0.24529 -0.336426,0.95557 -0.449068,1.42937 -0.124991,-0.37105 0.06219,-1.4174 -0.57981,-1.28364 -0.255109,0.60999 -0.237074,1.28321 -0.251664,1.93167 -0.03915,-0.0126 -0.0897,-1.15881 -0.283703,-1.57769 -0.148845,-0.73411 -0.722953,-0.0481 -0.633553,0.37207 -0.0046,0.68826 -0.0619,-0.0662 -0.116272,-0.32607 -0.205433,-0.81082 -0.732871,0.14813 -0.656291,0.55552 -0.02021,0.68174 -0.07629,-0.0984 -0.105937,-0.35244 0.06404,-0.67894 -0.606879,-0.45515 -0.525549,0.0806 9.8e-4,0.63097 -0.05397,-0.12336 -0.08217,-0.34882 0.08192,-0.46418 -0.493418,-0.56538 -0.466638,-0.0661 0.02034,0.38972 -0.06473,0.3496 -0.07183,-0.0124 0.07115,-0.37617 -0.352813,-0.75848 -0.440283,-0.19792 -0.02951,0.75139 0.0047,-0.13143 -0.196887,-0.34262 -0.246685,0.18671 -0.225089,0.59766 -0.258899,0.0341 -0.03211,-0.61772 -0.478967,0.02 -0.407727,0.31057 1.6e-4,0.45562 -0.03991,0.10375 -0.04341,-0.14573 0.09647,-0.37682 -0.343013,-0.6141 -0.336413,-0.108 0.0057,0.47741 -0.03384,0.0362 -0.05271,-0.19224 -0.0327,-0.44611 -0.2458,-0.2507 -0.309542,0.003 -0.0025,-0.26594 -0.264814,-0.44389 -0.296106,-0.0155 0.02875,0.91243 -0.02476,-0.97536 -0.318844,-0.23875 -0.06765,0.67156 0.01545,-0.49348 -0.252181,-0.16071 -0.05141,0.62965 -0.02463,-0.44197 -0.28267,-0.11421 -0.06855,0.63616 -0.02873,-0.45856 -0.291455,-0.13022 0.0019,0.59008 -0.118458,-0.3406 -0.264583,-0.03 -0.103575,0.52786 -0.0063,0.0541 -0.191203,-0.17156 z m 1.907894,8.4553 c -3.23e-4,0.0443 -0.03578,0.0903 -0.02429,0.13384 -0.04875,0.56401 -0.263503,1.16508 -0.07803,1.71411 0.223066,-0.15699 0.148668,0.34976 0.339514,0.51624 0.100837,0.0593 0.139724,0.1511 0.197404,0.37569 0.205455,-0.45884 0.06622,0.62417 0.30024,0.0465 -0.06757,0.32874 0.196582,0.41563 0.346232,0.63407 0.08397,-0.51443 0.113362,0.52198 0.251147,0.0233 -0.05487,0.29832 0.196106,0.20426 0.206706,-0.0341 0.01526,-0.60988 -0.0084,0.67862 0.211357,0.19533 0.105775,-0.62369 -0.04735,0.0657 0.234611,0.18811 0.05379,-0.48834 0.157328,0.41457 0.283187,-0.0579 0.02887,0.35621 0.244416,-0.13066 0.281636,0.23874 0.152133,-0.39257 0.109846,0.21396 0.294039,-0.062 0.0677,0.31254 0.143394,-0.11199 0.211874,0.21704 0.177591,-0.18949 0.04485,-0.25769 0.191202,0.0114 0.09853,-0.38187 0.119171,0.21936 0.243396,-0.0382 0.05777,-0.6768 0.07988,0.47048 0.238229,-0.076 0.01915,-0.58285 0.106413,0.64099 0.241845,0.0217 0.05573,0.58929 0.310587,-0.59456 0.228927,0.0677 0.126254,0.61558 0.326176,-0.61726 0.244946,-0.004 0.08616,0.52217 0.303119,-0.25637 0.225309,0.0832 0.249726,0.55752 0.278191,-0.82366 0.304891,-0.093 0.0236,0.46402 0.229436,0.17734 0.258383,-0.0879 0.02485,0.24261 0.191002,0.58732 0.30024,0.14624 0.01933,-0.71037 -0.01732,0.27048 0.24753,0.24598 0.02352,-0.61794 0.234266,0.45747 0.332796,-0.10129 0.03106,-0.56326 0.02214,0.31671 0.223759,0.0434 0.01987,-0.57245 0.06847,0.40645 0.279053,0.0532 0.03185,-0.1628 0.05079,-0.3257 0.0615,-0.48886 0.01071,0.16317 0.02963,0.32605 0.06149,0.48886 0.210583,0.35319 0.259184,-0.62571 0.279052,-0.0532 0.201614,0.27329 0.193218,-0.60668 0.224276,-0.0434 0.09853,0.55876 0.309275,-0.51665 0.332796,0.10129 0.264855,0.0245 0.22768,-0.95635 0.247014,-0.24598 0.10908,0.44044 0.275022,0.0973 0.30024,-0.14521 0.02935,0.26485 0.234813,0.55027 0.258382,0.0868 0.0267,-0.73063 0.05516,0.65055 0.304891,0.093 -0.07781,-0.33957 0.139147,0.43897 0.225309,-0.0832 -0.08123,-0.61298 0.118692,0.61934 0.244946,0.004 -0.08166,-0.66224 0.173714,0.52213 0.229444,-0.0672 0.135432,0.61927 0.222179,-0.60509 0.241329,-0.0222 0.158342,0.5464 0.180978,-0.60087 0.238745,0.076 0.124225,0.25764 0.14486,-0.34359 0.243396,0.0382 0.146352,-0.26901 0.01309,-0.2003 0.190686,-0.0109 0.06848,-0.32903 0.144689,0.0955 0.21239,-0.21704 0.184194,0.27598 0.141906,-0.33055 0.294039,0.062 0.03722,-0.3694 0.252762,0.11747 0.281636,-0.23874 0.125858,0.47243 0.229395,-0.43048 0.283187,0.0579 0.281964,-0.12245 0.128837,-0.8118 0.234611,-0.18811 0.219772,0.48329 0.196099,-0.80521 0.211357,-0.19533 0.0106,0.23837 0.261579,0.33243 0.206706,0.0341 0.137785,0.49877 0.167182,-0.53764 0.251147,-0.0233 0.14965,-0.21844 0.413284,-0.30533 0.345715,-0.63407 0.234015,0.57766 0.0953,-0.50535 0.300757,-0.0465 0.05768,-0.22459 0.09657,-0.31638 0.197404,-0.37569 0.190846,-0.16648 0.116449,-0.67323 0.339514,-0.51624 0.18547,-0.54903 -0.0298,-1.1501 -0.07855,-1.71411 0.01149,-0.0436 -0.02355,-0.0896 -0.02377,-0.13384 -0.04348,0.29564 -0.02968,1.12211 -0.104903,1.01544 -0.02278,-0.25163 -0.118459,-1.04067 -0.135909,-0.36019 -0.01471,0.26693 -0.0354,1.07518 -0.12299,0.4253 -0.124199,-0.73507 -0.08453,0.331 -0.0832,0.57619 -0.02952,0.45975 -0.257754,-1.15734 -0.223759,-0.42168 0.0019,0.28922 0.08163,1.19381 -0.05168,0.47956 -0.179933,-0.81312 -0.01896,0.68733 -0.0925,0.56844 -0.03196,-0.22035 -0.174117,-1.0585 -0.141077,-0.42891 0.02584,0.34865 -0.02341,0.39783 -0.05994,0.0305 -0.127803,-0.7825 -0.04077,0.3525 -0.09353,0.54105 -0.05301,-0.2327 -0.20969,-1.10931 -0.159163,-0.40721 0.01456,0.19172 0.02879,0.72562 -0.03049,0.25631 -0.02615,-0.21238 -0.147585,-0.84361 -0.112654,-0.2589 -0.0052,0.23215 0.03117,1.07525 -0.07596,0.41032 -0.03274,-0.19665 -0.181084,-0.91052 -0.136426,-0.32815 0.01003,0.21016 0.02912,0.8355 -0.02222,0.28991 -0.03238,-0.24906 -0.117393,-1.07317 -0.126607,-0.37828 -0.0149,0.22905 -0.03051,1.12335 -0.06149,0.47698 -0.01375,-0.23497 -0.04829,-0.88585 -0.09302,-0.32711 -0.03001,0.24477 -0.113417,1.09237 -0.129708,0.43769 -0.01269,-0.25266 -0.05326,-0.91344 -0.09974,-0.3147 -0.04249,0.33172 -0.116981,1.24586 -0.167432,0.46767 -0.02649,-0.22907 -0.10144,-0.86603 -0.111621,-0.31316 -0.01869,0.28334 -0.04426,1.10264 -0.120406,0.41186 -0.02257,-0.23029 -0.162737,-0.94471 -0.138493,-0.2744 0.0012,0.21776 -0.0077,0.81617 -0.06511,0.29869 -0.01314,-0.19742 -0.116475,-0.65656 -0.09922,-0.18966 0.0046,0.22254 -0.02943,0.73893 -0.0615,0.2248 -0.01764,-0.29325 -0.0892,-0.62389 -0.08372,-0.13281 -0.02555,0.73136 -0.05881,-0.1805 -0.120923,-0.37982 -0.03207,0.30208 -0.04683,0.957 -0.077,1.03508 -0.0446,-0.2551 -0.122477,-1.06281 -0.166398,-0.91313 -0.01469,0.29245 0.01176,1.30941 -0.102836,0.52814 -0.04555,-0.22188 -0.199267,-1.09196 -0.159163,-0.45424 -0.0016,0.22128 0.06941,1.20888 -0.03824,0.5488 -0.03372,-0.22636 -0.212788,-1.15824 -0.168982,-0.44286 0.01338,0.23705 0.02549,0.81167 -0.03669,0.27026 -0.03136,-0.25606 -0.156699,-1.14627 -0.145211,-0.45578 -0.007,0.71042 -0.05325,-0.14033 -0.124023,-0.37104 -0.035,0.31371 -0.02429,1.02367 -0.07751,1.08469 -0.04542,-0.33621 -0.08498,-1.07118 -0.150378,-1.15032 -0.04031,0.34542 -0.03981,1.067 -0.0987,1.18133 -0.05231,-0.31092 -0.05738,-1.05142 -0.152446,-1.11001 -0.04495,0.30788 -0.02936,1.13669 -0.105936,1.11827 -0.06834,-0.40111 -0.175938,-1.24243 -0.235645,-1.36374 -0.02226,0.35344 0.008,1.19683 -0.03876,1.26659 -0.05004,-0.34015 -0.109518,-1.1638 -0.170532,-1.21698 -0.02957,0.32834 -0.053,1.17184 -0.07596,1.16531 -0.03533,-0.44042 -0.07156,-1.23418 -0.119889,-1.45418 -0.03796,0.25457 -0.09065,1.07255 -0.117822,0.91984 0.001,-0.265 0.05296,-1.30051 -0.06666,-0.54725 -0.100457,0.4328 -0.22261,1.21737 -0.276469,1.43919 -0.02574,-0.67491 -0.09335,-1.34734 -0.144694,-2.02055 -0.06993,0.58792 -0.144268,1.49449 -0.191203,1.88722 -0.03766,-0.3124 -0.01468,-0.66767 -0.09302,-0.95343 -0.03939,0.15794 -0.06321,1.03343 -0.111105,0.77566 -0.03652,-0.5667 -0.08396,-1.13263 -0.130224,-1.6986 -0.04054,0.58995 -0.143898,1.18301 -0.17725,1.7756 -0.03335,-0.59259 -0.136197,-1.18565 -0.176734,-1.7756 -0.04627,0.56597 -0.09422,1.1319 -0.130741,1.6986 -0.0479,0.25777 -0.0712,-0.61772 -0.110588,-0.77566 -0.07834,0.28576 -0.05536,0.64103 -0.09302,0.95343 -0.04694,-0.39273 -0.121273,-1.2993 -0.191203,-1.88722 -0.05134,0.67321 -0.119471,1.34564 -0.145211,2.02055 -0.05386,-0.22182 -0.176012,-1.00639 -0.276469,-1.43919 -0.119619,-0.75326 -0.06715,0.28225 -0.06615,0.54725 -0.02718,0.15271 -0.07986,-0.66527 -0.117822,-0.91984 -0.04833,0.22 -0.08456,1.01376 -0.119889,1.45418 -0.02296,0.007 -0.0464,-0.83697 -0.07597,-1.16531 -0.06101,0.0532 -0.120492,0.87683 -0.170532,1.21698 -0.04673,-0.0698 -0.0165,-0.91315 -0.03876,-1.26659 -0.05971,0.12131 -0.167305,0.96263 -0.235645,1.36374 -0.07657,0.0184 -0.06099,-0.81039 -0.105936,-1.11827 -0.09507,0.0586 -0.100653,0.79909 -0.152963,1.11001 -0.05889,-0.11433 -0.05839,-0.83591 -0.0987,-1.18133 -0.0654,0.0791 -0.104441,0.81411 -0.149861,1.15032 -0.05322,-0.061 -0.04251,-0.77098 -0.07752,-1.08469 -0.07077,0.23071 -0.117023,1.08146 -0.124023,0.37104 0.01149,-0.69049 -0.113851,0.19972 -0.145211,0.45578 -0.06218,0.54141 -0.05007,-0.0332 -0.03669,-0.27026 0.04381,-0.71538 -0.135779,0.2165 -0.169499,0.44286 -0.10765,0.66008 -0.03664,-0.32752 -0.03824,-0.5488 0.0401,-0.63772 -0.113096,0.23236 -0.158646,0.45424 -0.114597,0.78127 -0.08815,-0.23569 -0.102836,-0.52814 -0.04392,-0.14968 -0.122315,0.65803 -0.166915,0.91313 -0.03017,-0.0781 -0.04441,-0.733 -0.07648,-1.03508 -0.06212,0.19932 -0.09589,1.11118 -0.12144,0.37982 0.0055,-0.49108 -0.06556,-0.16044 -0.0832,0.13281 -0.03207,0.51413 -0.0661,-0.002 -0.06149,-0.2248 0.01726,-0.4669 -0.08661,-0.008 -0.09974,0.18966 -0.05742,0.51748 -0.0658,-0.0809 -0.0646,-0.29869 0.02424,-0.67031 -0.115923,0.0441 -0.138493,0.2744 -0.07615,0.69078 -0.101716,-0.12852 -0.120406,-0.41186 -0.01018,-0.55287 -0.08565,0.0841 -0.112138,0.31316 -0.05045,0.77819 -0.124425,-0.13595 -0.166915,-0.46767 -0.04649,-0.59874 -0.08756,0.062 -0.100252,0.3147 -0.01629,0.65468 -0.09918,-0.19292 -0.129191,-0.43769 -0.04473,-0.55874 -0.07978,0.0921 -0.09353,0.32711 -0.03097,0.64637 -0.04608,-0.24793 -0.06098,-0.47698 -0.0092,-0.69489 -0.09423,0.12922 -0.126607,0.37828 -0.05134,0.54559 -0.03225,-0.0797 -0.02222,-0.28991 0.04466,-0.58237 -0.103685,0.1315 -0.136425,0.32815 -0.10713,0.66493 -0.07076,-0.17817 -0.07596,-0.41032 0.03493,-0.58471 -0.0865,0.0465 -0.112654,0.2589 -0.05928,0.46931 -0.04505,-0.0646 -0.03049,-0.25631 0.05053,-0.7021 -0.106671,0.17451 -0.15968,0.40721 -0.05275,-0.18855 0.03427,-1.32355 -0.09353,-0.54105 -0.03653,0.36735 -0.08527,0.31817 -0.05943,-0.0305 0.03304,-0.62959 -0.109117,0.20856 -0.141077,0.42891 -0.07354,0.11889 0.08692,-1.38156 -0.09302,-0.56844 -0.13331,0.71425 -0.05306,-0.19034 -0.05116,-0.47956 0.034,-0.73566 -0.194239,0.88143 -0.223759,0.42168 0.0013,-0.24519 0.04047,-1.31126 -0.08372,-0.57619 -0.08759,0.64988 -0.10828,-0.15837 -0.12299,-0.4253 -0.01745,-0.68048 -0.112612,0.10856 -0.135392,0.36019 -0.07522,0.10667 -0.06143,-0.7198 -0.104903,-1.01544 z m -5.744869,1.70429 c 1.929498,8.20355 4.257349,14.8644 6.958748,18.44073 1.457034,0.54441 9.944088,0.53607 10.928016,0 2.701398,-3.57633 5.02925,-10.23718 6.958748,-18.44073 -6.489665,7.06736 -5.280889,6.42286 -12.422498,6.42286 -7.141607,0 -5.933348,0.6445 -12.423014,-6.42286 z" /></g></svg>
